<svg width="31" height="25" viewBox="0 0 31 25" fill="none" xmlns="http://www.w3.org/2000/svg">
<path d="M4.79658 8.93205C7.11088 2.6113 11.7038 1 15.186 1C18.6683 1 23.2612 2.6113 25.5754 8.93205C25.5443 8.86984 29.4637 8.34104 29.3704 12.3537C29.3704 14.8671 26.8404 15.4747 25.5754 15.4643C25.1918 17.704 22.6204 23.583 15.186 23.583C7.75166 23.583 5.18022 17.704 4.79658 15.4643C3.5316 15.4747 1.00164 14.8671 1.00164 12.3537C0.908322 8.34104 4.82769 8.86984 4.79658 8.93205Z" stroke="white" stroke-width="1.5" stroke-linecap="round" stroke-linejoin="round"/>
<path d="M14.3471 1.5C13.1309 2.28639 10.9841 5.40442 14.3471 6.56127C18.2791 7.91387 20.6068 5.86924 19.1913 4.64247C18.0589 3.66105 16.3917 3.96093 15.6997 4.23355" stroke="white" stroke-width="1.5" stroke-linecap="round" stroke-linejoin="round"/>
<circle cx="12.2274" cy="12.5128" r="0.984976" fill="white"/>
<circle cx="18.1412" cy="12.5128" r="1.07116" fill="white"/>
<path d="M12.2124 16.218C12.1705 17.0464 13.1676 18.703 15.1556 18.703M18.2124 16.218C18.2543 17.0464 17.1751 18.703 15.1871 18.703" stroke="white" stroke-width="1.5" stroke-linecap="round" stroke-linejoin="round"/>
</svg>
