<svg width="26" height="27" viewBox="0 0 26 27" fill="none" xmlns="http://www.w3.org/2000/svg">
<path d="M17 11.3624L12 16.3644L10 14.3636" stroke="white" stroke-width="1.5" stroke-linecap="round" stroke-linejoin="round"/>
<path d="M11.0264 2.33906C12.0175 1.03143 13.9825 1.03143 14.9736 2.33906L16.2114 3.97219C16.4818 4.32893 16.9236 4.51198 17.3669 4.451L19.3965 4.17183C21.0216 3.9483 22.4111 5.33833 22.1876 6.96407L21.9086 8.99449C21.8476 9.43802 22.0306 9.87994 22.3872 10.1504L24.0197 11.3888C25.3268 12.3803 25.3268 14.3461 24.0197 15.3376L22.3872 16.5759C22.0306 16.8464 21.8476 17.2883 21.9086 17.7319L22.1876 19.7623C22.4111 21.388 21.0216 22.7781 19.3965 22.5545L17.3669 22.2754C16.9236 22.2144 16.4818 22.3974 16.2114 22.7542L14.9736 24.3873C13.9825 25.6949 12.0175 25.6949 11.0264 24.3873L9.78856 22.7542C9.51817 22.3974 9.07642 22.2144 8.63307 22.2754L6.60347 22.5545C4.97838 22.7781 3.58892 21.388 3.81236 19.7623L4.09142 17.7319C4.15237 17.2883 3.9694 16.8464 3.6128 16.5759L1.98033 15.3376C0.673225 14.3461 0.673225 12.3803 1.98033 11.3888L3.6128 10.1504C3.9694 9.87994 4.15237 9.43802 4.09142 8.99449L3.81236 6.96406C3.58892 5.33833 4.97839 3.9483 6.60347 4.17183L8.63307 4.451C9.07642 4.51198 9.51817 4.32893 9.78856 3.97219L11.0264 2.33906Z" stroke="white" stroke-width="1.5"/>
</svg>
