<svg width="24" height="25" viewBox="0 0 24 25" fill="none" xmlns="http://www.w3.org/2000/svg">
<path d="M0.75 12.3627C0.75 14.8171 0.882437 16.7382 1.21749 18.2465C1.55066 19.7462 2.07412 20.7913 2.82469 21.5422C3.57523 22.293 4.6198 22.8166 6.11881 23.1499C7.62634 23.4851 9.54663 23.6176 12 23.6176C14.4534 23.6176 16.3737 23.4851 17.8812 23.1499C19.3802 22.8166 20.4248 22.293 21.1753 21.5422C21.9259 20.7913 22.4493 19.7462 22.7825 18.2465C23.1176 16.7382 23.25 14.8171 23.25 12.3627C23.25 9.90833 23.1176 7.9872 22.7825 6.47896C22.4493 4.97923 21.9259 3.93415 21.1753 3.18328C20.4248 2.43243 19.3802 1.90882 17.8812 1.57554C16.3737 1.24037 14.4534 1.10788 12 1.10788C9.54663 1.10788 7.62634 1.24037 6.11881 1.57554C4.6198 1.90882 3.57523 2.43243 2.82469 3.18328C2.07412 3.93415 1.55066 4.97923 1.21749 6.47896C0.882437 7.9872 0.75 9.90833 0.75 12.3627Z" stroke="white" stroke-width="1.5" stroke-linecap="round" stroke-linejoin="round"/>
<path d="M8 10.3619L6 12.3627L8 14.3636" stroke="white" stroke-width="1.5" stroke-linecap="round" stroke-linejoin="round"/>
<path d="M16 10.3619L18 12.3627L16 14.3636" stroke="white" stroke-width="1.5" stroke-linecap="round" stroke-linejoin="round"/>
<path d="M10.2638 17.4702C10.1848 17.8768 10.4504 18.2705 10.8569 18.3496C11.2635 18.4286 11.6572 18.1631 11.7362 17.7565L10.2638 17.4702ZM13.7283 7.50388C13.8073 7.09727 13.5418 6.70356 13.1352 6.62449C12.7286 6.54542 12.3349 6.81095 12.2559 7.21756L13.7283 7.50388ZM11.7362 17.7565L13.7283 7.50388L12.2559 7.21756L10.2638 17.4702L11.7362 17.7565Z" fill="white"/>
</svg>
