<svg width="29" height="29" viewBox="0 0 29 29" fill="none" xmlns="http://www.w3.org/2000/svg">
<rect x="0.75" y="0.75" width="27.5" height="27.5" rx="5.25" stroke="white" stroke-width="1.5"/>
<path d="M16.425 14.06V15.605H11.01V14.06H16.425ZM15.06 20.15C14.3 20.15 13.59 20.02 12.93 19.76C12.28 19.49 11.71 19.115 11.22 18.635C10.74 18.145 10.365 17.57 10.095 16.91C9.835 16.25 9.705 15.53 9.705 14.75C9.705 13.97 9.835 13.25 10.095 12.59C10.365 11.93 10.74 11.36 11.22 10.88C11.71 10.39 12.28 10.015 12.93 9.755C13.59 9.485 14.3 9.35 15.06 9.35C15.95 9.35 16.755 9.5 17.475 9.8C18.205 10.1 18.81 10.535 19.29 11.105L18.06 12.305C17.67 11.885 17.235 11.575 16.755 11.375C16.275 11.165 15.745 11.06 15.165 11.06C14.655 11.06 14.185 11.155 13.755 11.345C13.335 11.525 12.965 11.78 12.645 12.11C12.335 12.43 12.095 12.815 11.925 13.265C11.765 13.715 11.685 14.21 11.685 14.75C11.685 15.29 11.765 15.785 11.925 16.235C12.095 16.685 12.335 17.075 12.645 17.405C12.965 17.725 13.335 17.98 13.755 18.17C14.185 18.35 14.655 18.44 15.165 18.44C15.745 18.44 16.275 18.34 16.755 18.14C17.235 17.93 17.67 17.615 18.06 17.195L19.29 18.395C18.81 18.965 18.205 19.4 17.475 19.7C16.755 20 15.95 20.15 15.06 20.15Z" fill="white"/>
</svg>
