<svg width="35" height="50" viewBox="0 0 35 50" fill="none" xmlns="http://www.w3.org/2000/svg">
<path d="M16.875 6.92787L18.1368 7.50996L18.1482 7.49221L18.159 7.47426L16.875 6.92787ZM5.06689 25.4333L3.80504 24.8512H3.80504L5.06689 25.4333ZM16.875 6.92785L15.6131 6.34576L15.6018 6.36352L15.5909 6.38146L16.875 6.92785ZM20.8813 2.01062L21.4718 0.569963L20.8813 2.01062ZM20.5571 7.70694L19.0565 7.7098L20.5571 7.70694ZM19.5304 21.5207L19.2378 22.9919L19.2404 22.9919L19.5304 21.5207ZM29.1876 24.2612L27.9258 23.6791L27.9258 23.6791L29.1876 24.2612ZM17.3795 42.7667L16.1177 42.1846L16.1177 42.1846L17.3795 42.7667ZM13.3733 47.6839L12.7827 49.1246L13.3733 47.6839ZM13.6974 41.9876L12.1968 41.9905L13.6974 41.9876ZM14.7887 28.1737L15.0813 26.7025L15.0764 26.7026L14.7887 28.1737ZM4.09175 27.7317L2.67822 28.5411L4.09175 27.7317ZM16.224 29.1526L17.7246 29.1498L16.224 29.1526ZM16.2424 28.317L14.9758 29.3583L16.2424 28.317ZM18.0305 20.5418L16.5299 20.5446L18.0305 20.5418ZM18.0121 21.3774L19.2788 20.3361L18.0121 21.3774ZM15.6131 6.34578L3.80504 24.8512L6.32875 26.0154L18.1368 7.50996L15.6131 6.34578ZM15.5909 6.38146L15.5909 6.38148L18.159 7.47426L18.1591 7.47424L15.5909 6.38146ZM21.4718 0.569963C20.646 0.395236 19.8946 0.794677 19.4228 1.16185C18.9764 1.50932 18.5798 1.97254 18.2353 2.42018C17.5352 3.32996 16.671 4.6879 15.6131 6.34576L18.1368 7.50994C19.2396 5.78169 19.9958 4.60005 20.5674 3.85726C20.8588 3.47862 21.0108 3.33729 21.0496 3.30704C21.0632 3.2965 20.7339 3.54503 20.2907 3.45127L21.4718 0.569963ZM22.0577 7.70408C22.4133 5.89752 22.7064 4.41898 22.801 3.38136C22.8475 2.8707 22.8618 2.32739 22.7476 1.86224C22.627 1.37148 22.2965 0.744462 21.4718 0.569963L20.2907 3.45127C19.8487 3.35773 19.7598 3.02203 19.7637 3.03802C19.7739 3.07962 19.7955 3.25846 19.7561 3.69045C19.6789 4.5381 19.4272 5.82676 19.0565 7.7098L22.0577 7.70408ZM19.5311 20.5389L22.0577 7.70408L19.0565 7.7098L16.5299 20.5446L19.5311 20.5389ZM18.5433 22.9919H19.2378L19.8229 20.0495H19.1284L18.5433 22.9919ZM20.019 20.0494C19.9515 20.0494 19.8849 20.0494 19.8203 20.0495L19.2404 22.9919C19.3019 22.9918 19.3659 22.9918 19.4339 22.9918L20.019 20.0494ZM28.1842 20.0494H20.019L19.4339 22.9918H27.5991L28.1842 20.0494ZM31.5763 21.1535C31.2268 20.4144 30.5025 20.1996 29.9733 20.1205C29.4715 20.0455 28.8219 20.0494 28.1842 20.0494L27.5991 22.9918C27.9488 22.9918 28.2275 22.9919 28.4643 22.9981C28.7033 23.0045 28.8556 23.0163 28.9552 23.0312C29.0574 23.0465 29.0427 23.0566 28.9837 23.0248C28.9045 22.9821 28.8088 22.8982 28.7492 22.7723L31.5763 21.1535ZM30.4495 24.8433C30.8157 24.2694 31.1919 23.6866 31.4243 23.1916C31.6697 22.6692 31.926 21.893 31.5763 21.1535L28.7492 22.7723C28.6897 22.6463 28.6821 22.5117 28.6959 22.4153C28.7061 22.3435 28.7223 22.3357 28.675 22.4363C28.629 22.5343 28.5504 22.678 28.4179 22.8967C28.2866 23.1135 28.1266 23.3643 27.9258 23.6791L30.4495 24.8433ZM18.6414 43.3488L30.4495 24.8433L27.9258 23.6791L16.1177 42.1846L18.6414 43.3488ZM12.7827 49.1246C13.6085 49.2993 14.3599 48.8999 14.8317 48.5327C15.2781 48.1852 15.6747 47.722 16.0192 47.2744C16.7193 46.3646 17.5835 45.0066 18.6414 43.3488L16.1177 42.1846C15.0149 43.9129 14.2587 45.0945 13.6871 45.8373C13.3957 46.2159 13.2437 46.3573 13.2049 46.3875C13.1913 46.3981 13.5206 46.1495 13.9638 46.2433L12.7827 49.1246ZM12.1968 41.9905C11.8412 43.797 11.5481 45.2756 11.4535 46.3132C11.407 46.8239 11.3927 47.3672 11.507 47.8323C11.6275 48.3231 11.958 48.9501 12.7827 49.1246L13.9638 46.2433C14.4059 46.3368 14.4947 46.6725 14.4908 46.6565C14.4806 46.6149 14.459 46.4361 14.4984 46.0041C14.5756 45.1565 14.8273 43.8678 15.198 41.9848L12.1968 41.9905ZM14.7235 29.1555L12.1968 41.9905L15.198 41.9848L17.7246 29.1498L14.7235 29.1555ZM15.7112 26.7025H15.0813L14.4962 29.6449H15.1262L15.7112 26.7025ZM14.2355 29.6452C14.3262 29.6452 14.4155 29.6452 14.501 29.6449L15.0764 26.7026C14.9966 26.7028 14.9123 26.7028 14.8206 26.7028L14.2355 29.6452ZM6.07034 29.6452H14.2355L14.8206 26.7028H6.6554L6.07034 29.6452ZM2.67822 28.5411C3.02771 29.2801 3.75205 29.4949 4.28122 29.574C4.78301 29.6491 5.43261 29.6452 6.07034 29.6452L6.6554 26.7028C6.3057 26.7028 6.02703 26.7027 5.79019 26.6964C5.5512 26.6901 5.3989 26.6783 5.2993 26.6634C5.19714 26.6481 5.21181 26.638 5.27076 26.6698C5.35002 26.7125 5.44574 26.7964 5.50529 26.9223L2.67822 28.5411ZM3.80504 24.8512C3.43882 25.4252 3.06265 26.0079 2.83016 26.503C2.58483 27.0254 2.32855 27.8016 2.67822 28.5411L5.50529 26.9223C5.56485 27.0483 5.57241 27.1829 5.55863 27.2793C5.54838 27.3511 5.53225 27.3588 5.57946 27.2583C5.62549 27.1603 5.70408 27.0165 5.83661 26.7978C5.96794 26.5811 6.12788 26.3302 6.32875 26.0154L3.80504 24.8512ZM17.7246 29.1498C17.7619 28.9606 17.8221 28.6708 17.8373 28.4168C17.855 28.1205 17.8298 27.6655 17.5091 27.2757L14.9758 29.3583C14.8837 29.2465 14.8299 29.1211 14.8041 29.005C14.7808 28.9006 14.7851 28.8252 14.7858 28.8142C14.7864 28.8042 14.7859 28.8203 14.7744 28.8875C14.7631 28.9539 14.7473 29.0346 14.7235 29.1555L17.7246 29.1498ZM15.1262 29.6449C15.2494 29.6449 15.3317 29.645 15.3991 29.6467C15.4672 29.6484 15.4831 29.6511 15.4732 29.6498C15.4623 29.6483 15.3874 29.6379 15.2894 29.595C15.1805 29.5472 15.0678 29.4702 14.9758 29.3583L17.5091 27.2757C17.1885 26.886 16.7467 26.7734 16.4525 26.7336C16.2002 26.6994 15.9041 26.7025 15.7112 26.7025L15.1262 29.6449ZM16.5299 20.5446C16.4927 20.7339 16.4324 21.0236 16.4172 21.2776C16.3995 21.5739 16.4248 22.0289 16.7454 22.4187L19.2788 20.3361C19.3708 20.4479 19.4247 20.5733 19.4505 20.6894C19.4737 20.7938 19.4694 20.8692 19.4688 20.8802C19.4682 20.8902 19.4686 20.8741 19.4801 20.8069C19.4915 20.7405 19.5073 20.6598 19.5311 20.5389L16.5299 20.5446ZM19.1284 20.0495C19.0052 20.0495 18.9228 20.0494 18.8554 20.0477C18.7873 20.046 18.7714 20.0433 18.7814 20.0446C18.7922 20.0461 18.8671 20.0565 18.9651 20.0994C19.074 20.1472 19.1868 20.2242 19.2788 20.3361L16.7454 22.4187C17.0661 22.8084 17.5078 22.921 17.8021 22.9608C18.0543 22.995 18.3504 22.9919 18.5433 22.9919L19.1284 20.0495Z" fill="white"/>
</svg>
