<svg width="53" height="53" viewBox="0 0 53 53" fill="none" xmlns="http://www.w3.org/2000/svg">
<circle cx="23" cy="30" r="6" stroke="white" stroke-width="2"/>
<circle cx="23" cy="30" r="6" stroke="white" stroke-width="2"/>
<circle cx="23" cy="30" r="14" stroke="white" stroke-width="2"/>
<circle cx="23" cy="30" r="14" stroke="white" stroke-width="2"/>
<path d="M33.5217 10.8696C30.5251 9.34054 26.595 8 23 8C10.8497 8 1 17.8497 1 30C1 42.1503 10.8497 52 23 52C35.1503 52 45 42.1503 45 30C45 26.1887 44.0308 22.6038 42.3255 19.4783" stroke="white" stroke-width="2"/>
<path d="M33.5217 10.8696C30.5251 9.34054 26.595 8 23 8C10.8497 8 1 17.8497 1 30C1 42.1503 10.8497 52 23 52C35.1503 52 45 42.1503 45 30C45 26.1887 44.0308 22.6038 42.3255 19.4783" stroke="white" stroke-width="2"/>
<path d="M23 30L34 19M34 19V11L42 3V9.5V11H44H50.5L42.5 19H34Z" stroke="white" stroke-width="2"/>
</svg>
