<svg width="300" height="18" viewBox="0 0 300 18" fill="none" xmlns="http://www.w3.org/2000/svg">
<path d="M28.8396 3.5518H16.1791H9.79956C6.54397 3.5518 3.84747 5.98996 3.84747 9C3.84747 9.60201 3.97901 10.1739 4.17631 10.7458C4.14342 10.6856 4.07766 10.6254 4.04477 10.5953C3.12401 9.48157 2.59786 8.09696 2.59786 6.62204C2.59786 2.9498 5.82052 0 9.79956 0H28.8396H32.0951H35.8111V1.7759V3.5518H31.9965H31.9307H28.8396ZM27.3927 14.4481H21.3748H17.5931H9.79956C8.64857 14.4481 7.56339 14.2374 6.57688 13.8762C3.45286 12.7023 1.24961 9.90299 1.24961 6.62204C1.24961 5.59866 1.44691 4.63543 1.84152 3.73244C0.657688 5.20731 0 7.04346 0 9C0 13.9665 4.37362 17.9699 9.79956 17.9699H27.3927H34.0353H35.8111V16.224V14.4481H31.9965H31.9307H27.3927ZM41.3945 1.17389V0.993306V0H45.2419V0.993306V2.67889V3.5518C45.2419 5.08692 45.7352 6.59197 46.7217 7.55515C43.6634 6.80268 41.3945 4.21401 41.3945 1.17389ZM74.2787 0.993306V0H78.1589V0.993306V1.17389C78.1589 4.21401 75.89 6.80268 72.7992 7.55515C73.7854 6.59197 74.2787 5.08692 74.2787 3.5518V2.67889V0.993306ZM61.717 12.5518H62.605H63.3613H69.1158C71.582 12.5518 73.8515 11.6187 75.4628 10.1438C76.745 8.96988 77.5674 7.40469 77.929 5.68893C76.3834 7.70567 73.8184 9 70.9575 9H69.1158H65.0713H63.3613H63.0323H62.605H61.3223H58.3957H58.1984H56.9157H56.4884H56.1594H54.4825H50.4048H48.5961C45.7023 9 43.1702 7.70567 41.6246 5.68893C41.9864 7.40469 42.8085 8.96988 44.0581 10.1438C45.7023 11.6187 47.9384 12.5518 50.4048 12.5518H56.1594H56.9157H57.8368V17.9699H61.717V12.5518ZM83.7523 18H87.5999H97.0703H103.22H104.93H109.007H114.631C114.631 18 114.631 18 114.664 18C115.058 17.9699 115.486 17.9398 115.847 17.8495C117.13 17.6087 118.248 16.9766 119.07 16.1037C119.958 15.1705 120.517 13.9365 120.517 12.612C120.517 11.2575 119.958 10.0535 119.07 9.09027C119.169 9.45149 119.235 9.84279 119.235 10.204C119.235 11.107 118.939 11.9197 118.445 12.612C118.149 12.9431 117.853 13.2743 117.492 13.5451C116.702 14.0869 115.716 14.4481 114.631 14.4481H103.22H102.365H98.7146H87.5999V10.7759H97.0703H104.93H109.007H114.631C114.631 10.7759 114.631 10.7759 114.664 10.7759C115.058 10.7759 115.486 10.7157 115.847 10.6555C117.13 10.3846 118.248 9.75247 119.07 8.87956C119.958 7.94645 120.517 6.71236 120.517 5.38795C120.517 4.06354 119.958 2.82941 119.07 1.86622C119.169 2.2274 119.235 2.61869 119.235 3.00999C119.235 3.88291 118.939 4.69562 118.445 5.38795C118.149 5.74913 117.853 6.05016 117.492 6.32106C116.702 6.89295 115.716 7.22405 114.631 7.22405H104.93H102.365H98.7146H87.5999V3.5518H97.0703H101.247H104.93H114.631C115.716 3.5518 116.604 4.36452 116.637 5.35783C116.966 5.11704 117.261 4.81602 117.492 4.45484C117.755 4.03342 117.886 3.52173 117.886 3.00999C117.886 1.35448 116.439 0.030074 114.664 0C114.631 0 114.631 0 114.631 0H105.127H103.22H102.365H98.7146H87.5999H83.7523V3.5518V14.4481V18ZM155.048 3.5518H131.668H126.11V0H131.668H155.048C157.416 0 159.291 1.74578 159.291 3.88291C159.291 4.96653 158.797 5.95984 158.008 6.68224C158.008 6.53177 158.041 6.41133 158.041 6.26086C158.041 4.78594 156.693 3.5518 155.048 3.5518ZM153.569 12.5518L157.745 18H162.48L157.877 11.9799C160.244 10.9866 161.921 8.78929 161.921 6.26086C161.921 4.78594 161.329 3.43141 160.375 2.34779C160.54 2.8294 160.639 3.3411 160.639 3.88291C160.639 6.71236 158.14 9 155.048 9H131.668H126.11V18H129.958V12.5518H153.569ZM168.083 0V17.9699H171.93V0H168.083ZM184.495 3.5518H181.404H181.338H177.556V1.7759V0H181.239H184.495H203.535C207.514 0 210.736 2.9498 210.736 6.62204C210.736 8.09696 210.21 9.48157 209.29 10.5953C209.257 10.6254 209.191 10.6856 209.158 10.7458C209.355 10.1739 209.487 9.60201 209.487 9C209.487 5.98996 206.79 3.5518 203.535 3.5518H197.155H184.495ZM185.942 14.4481H181.404H181.338H177.556V16.224V17.9699H179.299H185.942H203.535C208.961 17.9699 213.367 13.9665 213.367 9C213.367 7.04346 212.677 5.20731 211.493 3.73244C211.887 4.63543 212.085 5.59866 212.085 6.62204C212.085 9.90299 209.881 12.7023 206.757 13.8762C205.771 14.2374 204.686 14.4481 203.535 14.4481H195.741H191.959H185.942ZM242.068 10.7759V10.7458H251.769C252.854 10.7458 253.742 11.5886 253.775 12.5819C254.104 12.3411 254.4 12.01 254.597 11.6789C254.86 11.2274 255.025 10.7458 255.025 10.204C255.025 8.57858 253.578 7.22405 251.802 7.22405C251.769 7.22405 251.769 7.22405 251.769 7.22405H242.266H239.503H239.24H235.853H228.651C227.566 7.22405 226.711 8.00665 226.711 9C226.711 9.96318 227.566 10.7759 228.651 10.7759H238.385H242.068ZM221.549 6.62204C221.549 8.09696 222.075 9.48157 222.995 10.5953C223.028 10.6254 223.094 10.6856 223.127 10.7458C222.93 10.1739 222.798 9.60201 222.798 9C222.798 5.98996 225.495 3.5518 228.75 3.5518H235.13H242.068H243.022H253.775H256.669V1.7759V0H253.94H243.022H242.068H228.75C224.771 0 221.549 2.9498 221.549 6.62204ZM218.951 9C218.951 7.04346 219.608 5.20731 220.792 3.73244C220.398 4.63543 220.2 5.59866 220.2 6.62204C220.2 9.90299 222.404 12.7023 225.528 13.8762C226.514 14.2374 227.599 14.4481 228.75 14.4481H235.853H236.083H236.511H239.24H239.503H251.769C252.821 14.4481 253.841 14.0869 254.597 13.515C254.992 13.2743 255.288 12.9431 255.551 12.612C256.077 11.9197 256.373 11.107 256.373 10.204C256.373 9.81267 256.307 9.45149 256.209 9.09027C257.097 10.0234 257.623 11.2575 257.623 12.612C257.623 13.9365 257.097 15.1705 256.209 16.1037C255.386 16.9766 254.268 17.6087 252.986 17.8495C252.591 17.9398 252.197 17.9699 251.802 17.9699C251.769 17.9699 251.769 17.9699 251.769 17.9699H246.146H242.068H235.853H228.75C223.324 17.9699 218.951 13.9665 218.951 9ZM279.414 3.5518H286.353H287.307H298.06H300V1.7759V0H298.224H287.307H286.353H273.035C269.056 0 265.833 2.9498 265.833 6.62204C265.833 8.09696 266.359 9.48157 267.28 10.5953C267.313 10.6254 267.379 10.6856 267.412 10.7458C267.214 10.1739 267.083 9.60201 267.083 9C267.083 5.98996 269.779 3.5518 273.035 3.5518H279.414ZM286.353 14.4481H284.61H280.828H273.035C271.884 14.4481 270.799 14.2374 269.812 13.8762C266.688 12.7023 264.485 9.90299 264.485 6.62204C264.485 5.59866 264.682 4.63543 265.077 3.73244C263.893 5.20731 263.235 7.04346 263.235 9C263.235 13.9665 267.609 17.9699 273.035 17.9699H286.353H287.307H290.43H298.224H300V16.224V14.4481H298.06H290.463H287.307H286.353ZM272.936 10.7759C271.851 10.7759 270.996 9.96318 270.996 9C270.996 8.00665 271.851 7.22405 272.936 7.22405H282.67H286.353H296.12H300V9V10.7759H296.12H286.353H282.67H272.936Z" fill="white"/>
</svg>
