<svg width="56" height="14" viewBox="0 0 56 14" fill="none" xmlns="http://www.w3.org/2000/svg">
<g clip-path="url(#clip0_1088_2424)">
<path d="M26.2583 14H9.08985C7.06801 14 5.33746 13.3253 3.89818 11.976C2.45889 10.6267 1.73926 9.0043 1.73926 7.10882C1.73926 5.20692 2.45889 3.58131 3.89818 2.23199C5.33746 0.882669 7.06801 0.208008 9.08985 0.208008H26.2583V2.5115H9.08985C7.73967 2.5115 6.58482 2.95806 5.6253 3.85118C4.66579 4.75073 4.18602 5.8366 4.18602 7.10882C4.18602 8.37461 4.66579 9.45728 5.6253 10.3568C6.58482 11.2564 7.73967 11.7062 9.08985 11.7062H26.2583V14ZM33.9049 5.95226H51.6801C52.1873 5.95226 52.6226 5.78521 52.9856 5.45108C53.3422 5.11055 53.5202 4.70253 53.5202 4.22706C53.5202 3.75801 53.3422 3.35321 52.9856 3.01266C52.6226 2.67855 52.1873 2.5115 51.6801 2.5115H33.9049V5.95226ZM33.9049 11.7062H51.6801C52.1873 11.7062 52.6226 11.5359 52.9856 11.1953C53.3422 10.8612 53.5202 10.4564 53.5202 9.98095C53.5202 9.50548 53.3422 9.09747 52.9856 8.75693C52.6226 8.42281 52.1873 8.25575 51.6801 8.25575H33.9049V11.7062ZM31.4583 14V0.208008H51.6801C52.8658 0.208008 53.8768 0.603167 54.7129 1.39348C55.5559 2.17737 55.9773 3.1219 55.9773 4.22706C55.9773 5.35793 55.5456 6.3185 54.6821 7.10882C55.5456 7.89271 55.9773 8.85009 55.9773 9.98095C55.9773 11.0861 55.5559 12.0338 54.7129 12.8242C53.8768 13.6081 52.8658 14 51.6801 14H31.4583Z" fill="white"/>
</g>
<defs>
<clipPath id="clip0_1088_2424">
<rect width="56" height="14" fill="white"/>
</clipPath>
</defs>
</svg>
