<svg width="237" height="47" viewBox="0 0 237 47" fill="none" xmlns="http://www.w3.org/2000/svg">
<path d="M10.3 27.725C9.85 27.925 9.15 28.225 9 28.3C8.775 28.425 8.525 28.7 8.525 29.275V31.625C8.525 32.175 8.1 32.6 7.55 32.6C7.025 32.6 6.6 32.175 6.6 31.625V18.85C6.6 18.325 7.025 17.9 7.55 17.9C8.1 17.9 8.525 18.325 8.525 18.85V22.775L9.825 22.175C10.05 22.075 10.3 21.8 10.3 21.225V18.55C10.3 17.35 9.35 16.35 8.15 16.325H7.05C5.8 16.325 4.8 17.325 4.8 18.55V31.95C4.8 33.175 5.8 34.175 7.05 34.175H8.15C9.35 34.125 10.3 33.15 10.3 31.95V27.725ZM25.1902 34V27.3C25.1902 27.3 25.2402 26 24.5402 25.65C25.2652 25.475 25.1902 24.1 25.1902 24.1V18.7C25.1902 17.475 24.1902 16.5 22.9902 16.5H19.7152V34H21.5152V26.475H22.4652C22.9402 26.475 23.3902 26.75 23.3902 27.6V34H25.1902ZM21.5152 24.775V18.175H22.4652C22.9402 18.175 23.3902 18.425 23.3902 19.075V23.775C23.3902 24.575 22.9402 24.775 22.4652 24.775H21.5152ZM39.9055 16.5H38.5805C38.5305 16.5 38.0805 16.525 38.0055 17.1L36.8555 23.725L35.7055 17.1C35.6305 16.525 35.1805 16.5 35.1305 16.5H33.8055L35.9555 26.725V33.475C35.9805 33.775 36.2055 34 36.4805 34H37.7555V26.725L39.9055 16.5ZM48.9506 16.5V33.625C48.9506 33.75 49.0256 34 49.4506 34H50.7256V26.15H51.8006C53.5256 26.15 54.3506 24.925 54.3506 23.225V18.7C54.3506 17.475 53.2756 16.5 52.0756 16.5H48.9506ZM52.6256 23.625C52.5756 24.1 52.1756 24.475 51.6756 24.475H50.7256V18.175H51.6756C52.1756 18.175 52.5756 18.55 52.6256 19.025V23.625ZM69.7408 16.5H62.5908C62.2908 16.5 62.0408 16.75 62.0408 17.05V18.275H64.5658V33.625C64.5658 33.75 64.6408 34 65.0658 34H66.3408V18.7C66.3658 18.475 66.5408 18.275 66.7908 18.275H68.1908C68.7658 18.275 69.0408 18.025 69.1408 17.8L69.7408 16.5ZM79.3109 16.325C78.0609 16.325 77.0609 17.325 77.0609 18.55V31.975C77.0859 33.175 78.0859 34.175 79.3109 34.175H80.6859C81.8859 34.125 82.8359 33.175 82.8609 31.975V18.55C82.8609 17.35 81.8859 16.375 80.6859 16.325H79.3109ZM79.8109 32.6C79.2859 32.575 78.8609 32.15 78.8609 31.625V18.875C78.8609 18.35 79.2859 17.925 79.8109 17.9H80.0859C80.6109 17.9 81.0359 18.325 81.0359 18.875V31.625C81.0359 32.175 80.6109 32.6 80.0859 32.6H79.8109ZM124.707 32.225V26.15C124.707 25.925 124.907 25.725 125.132 25.725H125.882C126.457 25.725 126.707 25.475 126.832 25.25C126.907 25.1 127.207 24.375 127.407 23.925H124.707V18.725C124.707 18.475 124.882 18.3 125.132 18.3H126.582C127.157 18.3 127.432 18.025 127.532 17.8L128.132 16.5H123.457C123.157 16.5 122.932 16.725 122.907 17V34H126.907C127.482 34 127.757 33.75 127.882 33.525C127.957 33.375 128.257 32.675 128.457 32.225H124.707ZM138.272 34H136.197L138.972 24.725L136.622 16.5H138.022C138.097 16.5 138.547 16.5 138.722 17.1L139.997 21.75L141.197 17.1C141.372 16.5 141.822 16.5 141.897 16.5H143.297L141.047 24.75L143.647 34H141.697L140.072 27.65L138.272 34ZM157.712 27.725C157.262 27.925 156.562 28.225 156.412 28.3C156.187 28.425 155.937 28.7 155.937 29.275V31.625C155.937 32.175 155.512 32.6 154.962 32.6C154.437 32.6 154.012 32.175 154.012 31.625V18.85C154.012 18.325 154.437 17.9 154.962 17.9C155.512 17.9 155.937 18.325 155.937 18.85V22.775L157.237 22.175C157.462 22.075 157.712 21.8 157.712 21.225V18.55C157.712 17.35 156.762 16.35 155.562 16.325H154.462C153.212 16.325 152.212 17.325 152.212 18.55V31.95C152.212 33.175 153.212 34.175 154.462 34.175H155.562C156.762 34.125 157.712 33.15 157.712 31.95V27.725ZM171.102 16.5V24.2H169.352C168.927 24.2 168.727 24.075 168.727 23.575V16.5H167.652C167.102 16.5 166.927 16.9 166.927 17.2V34H168.727V25.975H170.677C170.902 25.975 171.077 26.15 171.102 26.375V34H172.902V17.2C172.902 16.9 172.727 16.5 172.177 16.5H171.102ZM187.943 34H185.968L184.393 21.95L182.818 34H180.843L183.493 16.5H184.468C185.218 16.5 185.343 16.975 185.418 17.45L187.943 34ZM201.757 16.5H199.957V26.575L198.107 17.475C198.007 16.975 197.832 16.5 196.832 16.5H196.007V34H197.807V24.225L199.732 32.875C199.807 33.225 199.957 34 200.932 34H201.757V16.5ZM216.622 18.55C216.622 17.35 215.647 16.375 214.447 16.325H213.347C212.122 16.325 211.122 17.325 211.122 18.55V31.95C211.122 33.175 212.122 34.175 213.347 34.175H214.447C215.647 34.125 216.622 33.15 216.622 31.95V25.575C216.622 24.9 216.297 24.6 215.747 24.6H213.497L214.097 25.85C214.097 25.85 214.347 26.425 214.747 26.425H214.822V31.65C214.822 32.175 214.397 32.6 213.872 32.6C213.347 32.6 212.922 32.175 212.922 31.65V18.85C212.922 18.325 213.347 17.9 213.872 17.9C214.397 17.9 214.822 18.325 214.822 18.85V22.85C215.297 22.65 215.997 22.325 216.122 22.25C216.372 22.125 216.622 21.875 216.622 21.275V18.55ZM228.637 32.225V26.15C228.637 25.925 228.837 25.725 229.062 25.725H229.812C230.387 25.725 230.637 25.475 230.762 25.25C230.837 25.1 231.137 24.375 231.337 23.925H228.637V18.725C228.637 18.475 228.812 18.3 229.062 18.3H230.512C231.087 18.3 231.362 18.025 231.462 17.8L232.062 16.5H227.387C227.087 16.5 226.862 16.725 226.837 17V34H230.837C231.412 34 231.687 33.75 231.812 33.525C231.887 33.375 232.187 32.675 232.387 32.225H228.637Z" fill="white"/>
<path d="M110 24.5714L100 16V33.1429L110 24.5714Z" fill="url(#paint0_linear_919_2)"/>
<defs>
<linearGradient id="paint0_linear_919_2" x1="110" y1="24.5714" x2="98.125" y2="24.5714" gradientUnits="userSpaceOnUse">
<stop stop-color="#007BC0"/>
<stop offset="1" stop-color="#007BC0" stop-opacity="0"/>
</linearGradient>
</defs>
</svg>
