<svg width="1039" height="666" viewBox="0 0 1039 666" fill="none" xmlns="http://www.w3.org/2000/svg">
<g clip-path="url(#clip0_1944_6952)">
<path d="M124.117 553.514H37.2089C26.9743 553.514 18.2141 550.327 10.9285 543.953C3.64284 537.579 0 529.915 0 520.961C0 511.977 3.64284 504.297 10.9285 497.923C18.2141 491.549 26.9743 488.362 37.2089 488.362H124.117L102.751 499.244H37.2089C30.3744 499.244 24.5284 501.353 19.6713 505.572C14.8142 509.822 12.3856 514.951 12.3856 520.961C12.3856 526.941 14.8142 532.055 19.6713 536.304C24.5284 540.554 30.3744 542.678 37.2089 542.678H102.751L124.117 553.514ZM254.752 488.362L211.299 516.863L167.845 488.362H147.185L205.106 526.379V553.514H217.492V526.379L275.413 488.362H254.752ZM296.452 515.498H398.816C401.382 515.498 403.587 514.708 405.425 513.13C407.229 511.521 408.131 509.594 408.131 507.348C408.131 505.132 407.229 503.22 405.425 501.611C403.587 500.033 401.382 499.244 398.816 499.244H312.42L296.452 488.362V515.498ZM308.838 542.678H398.816C401.382 542.678 403.587 541.874 405.425 540.265C407.229 538.687 408.131 536.775 408.131 534.529C408.131 532.283 407.229 530.355 405.425 528.746C403.587 527.168 401.382 526.379 398.816 526.379H308.838V542.678ZM296.452 553.514V488.362H398.816C404.817 488.362 409.936 490.229 414.168 493.962C418.435 497.665 420.568 502.127 420.568 507.348C420.568 512.69 418.383 517.228 414.011 520.961C418.383 524.664 420.568 529.187 420.568 534.529C420.568 539.749 418.435 544.226 414.168 547.96C409.936 551.663 404.817 553.514 398.816 553.514H296.452ZM555.571 524.285C559.145 522.676 562.007 520.384 564.158 517.41C566.344 514.344 567.437 510.99 567.437 507.348C567.437 502.127 565.302 497.665 561.035 493.962C556.803 490.229 551.686 488.362 545.683 488.362H443.319L459.605 499.244H545.683C548.251 499.244 550.454 500.033 552.293 501.611C554.096 503.22 554.998 505.132 554.998 507.348C554.998 509.594 554.096 511.521 552.293 513.13C550.454 514.708 548.251 515.498 545.683 515.498H455.705H443.319V553.514H455.705V526.379H530.175C537.045 526.379 542.891 528.504 547.713 532.753C552.57 537.003 554.998 542.117 554.998 548.096V553.514H567.437V548.096C567.437 538.687 563.481 530.75 555.571 524.285ZM589.347 553.514H601.732V499.244V487H589.347V553.514ZM623.582 487.698L638.725 499.244H710.437C717.307 499.244 723.153 501.353 727.976 505.572C732.833 509.822 735.262 514.951 735.262 520.961C735.262 526.941 732.833 532.055 727.976 536.304C723.153 540.554 717.307 542.678 710.437 542.678H635.968V515.575H623.582V553.514H710.437C720.707 553.514 729.485 550.327 736.771 543.953C744.056 537.579 747.698 529.915 747.698 520.961C747.698 511.977 744.056 504.297 736.771 497.923C729.485 491.549 720.707 488.362 710.437 488.362L623.582 487.698ZM790.824 553.514C784.857 553.514 779.74 551.663 775.473 547.96C771.24 544.226 769.124 539.749 769.124 534.529V507.348C769.124 502.127 771.24 497.665 775.473 493.962C779.74 490.229 784.857 488.362 790.824 488.362H874.61L882.245 488.363C888.255 488.363 893.126 493.234 893.126 499.244H879.06C879.06 499.244 876.309 499.244 874.61 499.244H790.824C788.257 499.244 786.071 500.033 784.268 501.611C782.429 503.22 781.509 505.132 781.509 507.348V534.529C781.509 536.775 782.429 538.687 784.268 540.265C786.071 541.874 788.257 542.678 790.824 542.678H871.488C874.054 542.678 876.258 541.874 878.097 540.265C879.9 538.687 880.803 536.775 880.803 534.529V526.379H856.031L871.354 515.498H893.24V534.529C893.24 539.749 891.107 544.226 886.839 547.96C882.606 551.663 877.489 553.514 871.488 553.514H790.824ZM914.882 515.498V553.514H1039V542.678H927.268V526.379H1039V515.498H914.882ZM914.882 488.362L930.317 499.244H1023.35L1039 488.362H914.882Z" fill="white"/>
<path d="M364.996 655.837V625.198H353V620.849H381.94V625.198H369.944V655.837H364.996ZM395.747 656.137C392.915 656.137 390.415 655.554 388.249 654.388C386.117 653.221 384.451 651.622 383.251 649.589C382.085 647.557 381.502 645.224 381.502 642.592C381.502 639.959 382.068 637.627 383.201 635.594C384.367 633.561 385.95 631.979 387.95 630.846C389.982 629.679 392.265 629.096 394.797 629.096C397.363 629.096 399.629 629.663 401.595 630.796C403.561 631.929 405.094 633.528 406.193 635.594C407.326 637.627 407.893 640.009 407.893 642.742C407.893 642.942 407.876 643.175 407.843 643.441C407.843 643.708 407.826 643.958 407.793 644.191H385.25V640.742H405.294L403.344 641.942C403.378 640.243 403.028 638.726 402.295 637.393C401.562 636.061 400.545 635.028 399.246 634.295C397.979 633.528 396.497 633.145 394.797 633.145C393.131 633.145 391.648 633.528 390.349 634.295C389.049 635.028 388.033 636.077 387.3 637.443C386.567 638.776 386.2 640.309 386.2 642.042V642.842C386.2 644.608 386.6 646.19 387.4 647.59C388.233 648.956 389.382 650.023 390.849 650.789C392.315 651.555 393.998 651.939 395.897 651.939C397.463 651.939 398.879 651.672 400.145 651.139C401.445 650.606 402.578 649.806 403.544 648.74L406.193 651.839C404.994 653.238 403.494 654.304 401.695 655.038C399.929 655.771 397.946 656.137 395.747 656.137ZM426.102 656.137C423.403 656.137 420.987 655.554 418.854 654.388C416.755 653.221 415.106 651.622 413.906 649.589C412.706 647.557 412.107 645.224 412.107 642.592C412.107 639.959 412.706 637.627 413.906 635.594C415.106 633.561 416.755 631.979 418.854 630.846C420.987 629.679 423.403 629.096 426.102 629.096C428.501 629.096 430.634 629.579 432.5 630.546C434.399 631.479 435.865 632.878 436.898 634.744L433.25 637.094C432.383 635.794 431.317 634.844 430.051 634.245C428.818 633.611 427.485 633.295 426.052 633.295C424.319 633.295 422.77 633.678 421.404 634.444C420.037 635.211 418.954 636.294 418.155 637.693C417.355 639.06 416.955 640.692 416.955 642.592C416.955 644.491 417.355 646.141 418.155 647.54C418.954 648.94 420.037 650.023 421.404 650.789C422.77 651.555 424.319 651.939 426.052 651.939C427.485 651.939 428.818 651.639 430.051 651.039C431.317 650.406 432.383 649.439 433.25 648.14L436.898 650.439C435.865 652.272 434.399 653.688 432.5 654.688C430.634 655.654 428.501 656.137 426.102 656.137ZM456.914 629.096C459.08 629.096 460.979 629.513 462.612 630.346C464.278 631.179 465.578 632.445 466.511 634.145C467.444 635.844 467.91 637.993 467.91 640.592V655.837H463.112V641.142C463.112 638.576 462.479 636.644 461.213 635.344C459.98 634.045 458.23 633.395 455.964 633.395C454.265 633.395 452.782 633.728 451.516 634.394C450.25 635.061 449.267 636.044 448.567 637.343C447.901 638.643 447.567 640.259 447.567 642.192V655.837H442.769V618.75H447.567V636.494L446.618 634.594C447.484 632.862 448.817 631.512 450.616 630.546C452.416 629.579 454.515 629.096 456.914 629.096ZM490.936 629.096C493.102 629.096 495.001 629.513 496.634 630.346C498.3 631.179 499.6 632.445 500.533 634.145C501.466 635.844 501.932 637.993 501.932 640.592V655.837H497.134V641.142C497.134 638.576 496.501 636.644 495.234 635.344C494.002 634.045 492.252 633.395 489.986 633.395C488.287 633.395 486.804 633.728 485.538 634.394C484.271 635.061 483.288 636.044 482.589 637.343C481.922 638.643 481.589 640.259 481.589 642.192V655.837H476.791V629.346H481.389V636.494L480.639 634.594C481.506 632.862 482.839 631.512 484.638 630.546C486.437 629.579 488.537 629.096 490.936 629.096ZM522.159 656.137C519.493 656.137 517.127 655.554 515.061 654.388C512.995 653.221 511.362 651.622 510.163 649.589C508.963 647.523 508.363 645.191 508.363 642.592C508.363 639.959 508.963 637.627 510.163 635.594C511.362 633.561 512.995 631.979 515.061 630.846C517.127 629.679 519.493 629.096 522.159 629.096C524.791 629.096 527.14 629.679 529.206 630.846C531.306 631.979 532.938 633.561 534.105 635.594C535.304 637.593 535.904 639.926 535.904 642.592C535.904 645.224 535.304 647.557 534.105 649.589C532.938 651.622 531.306 653.221 529.206 654.388C527.14 655.554 524.791 656.137 522.159 656.137ZM522.159 651.939C523.858 651.939 525.374 651.555 526.707 650.789C528.073 650.023 529.14 648.94 529.906 647.54C530.672 646.107 531.056 644.458 531.056 642.592C531.056 640.692 530.672 639.06 529.906 637.693C529.14 636.294 528.073 635.211 526.707 634.444C525.374 633.678 523.858 633.295 522.159 633.295C520.459 633.295 518.943 633.678 517.61 634.444C516.277 635.211 515.211 636.294 514.411 637.693C513.611 639.06 513.212 640.692 513.212 642.592C513.212 644.458 513.611 646.107 514.411 647.54C515.211 648.94 516.277 650.023 517.61 650.789C518.943 651.555 520.459 651.939 522.159 651.939ZM542.54 655.837V618.75H547.338V655.837H542.54ZM567.846 656.137C565.181 656.137 562.815 655.554 560.749 654.388C558.683 653.221 557.05 651.622 555.85 649.589C554.651 647.523 554.051 645.191 554.051 642.592C554.051 639.959 554.651 637.627 555.85 635.594C557.05 633.561 558.683 631.979 560.749 630.846C562.815 629.679 565.181 629.096 567.846 629.096C570.479 629.096 572.828 629.679 574.894 630.846C576.993 631.979 578.626 633.561 579.792 635.594C580.992 637.593 581.592 639.926 581.592 642.592C581.592 645.224 580.992 647.557 579.792 649.589C578.626 651.622 576.993 653.221 574.894 654.388C572.828 655.554 570.479 656.137 567.846 656.137ZM567.846 651.939C569.546 651.939 571.062 651.555 572.395 650.789C573.761 650.023 574.827 648.94 575.594 647.54C576.36 646.107 576.743 644.458 576.743 642.592C576.743 640.692 576.36 639.06 575.594 637.693C574.827 636.294 573.761 635.211 572.395 634.444C571.062 633.678 569.546 633.295 567.846 633.295C566.147 633.295 564.631 633.678 563.298 634.444C561.965 635.211 560.899 636.294 560.099 637.693C559.299 639.06 558.899 640.692 558.899 642.592C558.899 644.458 559.299 646.107 560.099 647.54C560.899 648.94 561.965 650.023 563.298 650.789C564.631 651.555 566.147 651.939 567.846 651.939ZM599.824 665.834C597.391 665.834 595.025 665.484 592.726 664.784C590.46 664.118 588.611 663.151 587.178 661.885L589.477 658.186C590.71 659.253 592.226 660.086 594.026 660.686C595.825 661.319 597.708 661.635 599.674 661.635C602.806 661.635 605.105 660.902 606.572 659.436C608.038 657.97 608.771 655.737 608.771 652.738V647.14L609.271 641.892L609.021 636.594V629.346H613.569V652.238C613.569 656.904 612.403 660.336 610.07 662.535C607.738 664.734 604.322 665.834 599.824 665.834ZM599.224 654.738C596.658 654.738 594.359 654.204 592.326 653.138C590.327 652.039 588.728 650.522 587.528 648.59C586.362 646.657 585.779 644.424 585.779 641.892C585.779 639.326 586.362 637.094 587.528 635.194C588.728 633.262 590.327 631.762 592.326 630.696C594.359 629.629 596.658 629.096 599.224 629.096C601.49 629.096 603.556 629.563 605.422 630.496C607.288 631.395 608.771 632.795 609.87 634.694C611.003 636.594 611.57 638.993 611.57 641.892C611.57 644.758 611.003 647.14 609.87 649.04C608.771 650.939 607.288 652.372 605.422 653.338C603.556 654.271 601.49 654.738 599.224 654.738ZM599.774 650.539C601.54 650.539 603.106 650.172 604.472 649.439C605.838 648.706 606.905 647.69 607.671 646.39C608.471 645.091 608.871 643.591 608.871 641.892C608.871 640.193 608.471 638.693 607.671 637.393C606.905 636.094 605.838 635.094 604.472 634.394C603.106 633.661 601.54 633.295 599.774 633.295C598.008 633.295 596.425 633.661 595.025 634.394C593.659 635.094 592.576 636.094 591.777 637.393C591.01 638.693 590.627 640.193 590.627 641.892C590.627 643.591 591.01 645.091 591.777 646.39C592.576 647.69 593.659 648.706 595.025 649.439C596.425 650.172 598.008 650.539 599.774 650.539ZM622.738 655.837V629.346H627.536V655.837H622.738ZM625.137 624.248C624.204 624.248 623.421 623.948 622.788 623.348C622.188 622.748 621.888 622.015 621.888 621.149C621.888 620.249 622.188 619.499 622.788 618.9C623.421 618.3 624.204 618 625.137 618C626.07 618 626.836 618.3 627.436 618.9C628.069 619.466 628.386 620.183 628.386 621.049C628.386 621.949 628.086 622.715 627.486 623.348C626.886 623.948 626.103 624.248 625.137 624.248ZM648.494 656.137C645.661 656.137 643.162 655.554 640.996 654.388C638.864 653.221 637.198 651.622 635.998 649.589C634.832 647.557 634.249 645.224 634.249 642.592C634.249 639.959 634.815 637.627 635.948 635.594C637.114 633.561 638.697 631.979 640.696 630.846C642.729 629.679 645.012 629.096 647.544 629.096C650.11 629.096 652.376 629.663 654.342 630.796C656.308 631.929 657.841 633.528 658.94 635.594C660.073 637.627 660.64 640.009 660.64 642.742C660.64 642.942 660.623 643.175 660.59 643.441C660.59 643.708 660.573 643.958 660.54 644.191H637.997V640.742H658.041L656.091 641.942C656.125 640.243 655.775 638.726 655.042 637.393C654.308 636.061 653.292 635.028 651.993 634.295C650.726 633.528 649.244 633.145 647.544 633.145C645.878 633.145 644.395 633.528 643.096 634.295C641.796 635.028 640.78 636.077 640.047 637.443C639.314 638.776 638.947 640.309 638.947 642.042V642.842C638.947 644.608 639.347 646.19 640.147 647.59C640.98 648.956 642.129 650.023 643.595 650.789C645.062 651.555 646.744 651.939 648.644 651.939C650.21 651.939 651.626 651.672 652.892 651.139C654.192 650.606 655.325 649.806 656.291 648.74L658.94 651.839C657.741 653.238 656.241 654.304 654.442 655.038C652.676 655.771 650.693 656.137 648.494 656.137ZM674.9 656.137C672.701 656.137 670.602 655.837 668.602 655.237C666.636 654.638 665.087 653.905 663.954 653.038L665.953 649.239C667.086 650.006 668.486 650.656 670.152 651.189C671.818 651.722 673.517 651.989 675.25 651.989C677.483 651.989 679.082 651.672 680.048 651.039C681.048 650.406 681.548 649.523 681.548 648.39C681.548 647.557 681.248 646.907 680.648 646.44C680.048 645.974 679.249 645.624 678.249 645.391C677.283 645.158 676.2 644.958 675 644.791C673.8 644.591 672.601 644.358 671.401 644.091C670.202 643.791 669.102 643.391 668.102 642.892C667.103 642.358 666.303 641.642 665.703 640.742C665.103 639.809 664.804 638.576 664.804 637.044C664.804 635.444 665.253 634.045 666.153 632.845C667.053 631.645 668.319 630.729 669.952 630.096C671.618 629.429 673.584 629.096 675.85 629.096C677.583 629.096 679.332 629.313 681.098 629.746C682.897 630.146 684.364 630.729 685.497 631.495L683.447 635.294C682.248 634.494 680.998 633.945 679.698 633.645C678.399 633.345 677.099 633.195 675.8 633.195C673.701 633.195 672.134 633.545 671.101 634.245C670.068 634.911 669.552 635.777 669.552 636.844C669.552 637.743 669.852 638.443 670.452 638.943C671.085 639.409 671.884 639.776 672.851 640.043C673.85 640.309 674.95 640.542 676.15 640.742C677.349 640.909 678.549 641.142 679.748 641.442C680.948 641.709 682.031 642.092 682.997 642.592C683.997 643.092 684.797 643.791 685.397 644.691C686.03 645.591 686.346 646.79 686.346 648.29C686.346 649.889 685.88 651.272 684.947 652.438C684.014 653.605 682.697 654.521 680.998 655.187C679.299 655.821 677.266 656.137 674.9 656.137Z" fill="white"/>
<path d="M495.905 419.568L352.376 336.757L352.374 336.756C337.869 328.435 329 312.956 329 296.217V130.593C329 113.862 337.954 98.4677 352.378 90.0524L352.38 90.0511L495.905 7.24285C510.415 -1.08053 528.24 -1.08096 542.75 7.2416L542.752 7.24285L686.28 90.0535L686.282 90.0547C700.788 98.375 709.657 113.855 709.657 130.593V296.217C709.657 312.948 700.703 328.341 686.28 336.757L686.276 336.759L542.752 419.568M542.75 419.569C528.241 427.89 510.416 427.89 495.907 419.569" stroke="url(#paint0_linear_1944_6952)" stroke-width="2"/>
<path d="M564.45 186.812L522.65 206.642L519.35 248.512L516.04 206.612L474.19 186.812L519.35 202.762L564.45 186.812Z" fill="white"/>
<path d="M508.47 286.891L461.08 259.571C457.768 257.638 455.012 254.883 453.08 251.571C451.161 248.27 450.153 244.519 450.16 240.701V185.991C450.146 182.825 450.829 179.694 452.16 176.821L406 156.191V156.281C404.692 160.075 404.017 164.058 404 168.071V258.931C404.015 265.342 405.714 271.637 408.925 277.186C412.137 282.735 416.749 287.343 422.3 290.551L501.06 335.991C505.24 338.365 509.836 339.916 514.6 340.561L517.7 289.831H519.35C515.527 289.832 511.772 288.817 508.47 286.891ZM633 157.131L586.7 177.381C587.897 180.125 588.513 183.087 588.51 186.081V240.831C588.518 244.649 587.51 248.401 585.59 251.701C583.658 255.013 580.902 257.768 577.59 259.701L530.24 286.891C526.937 288.814 523.182 289.825 519.36 289.821H521L524.1 340.551C528.866 339.91 533.466 338.362 537.65 335.991L550.4 328.641L616.4 290.561C621.961 287.382 626.573 282.777 629.76 277.221C632.973 271.663 634.676 265.361 634.7 258.941V168.071C634.707 164.358 634.134 160.667 633 157.131ZM616.32 136.451L537.56 90.9308C532.009 87.7013 525.702 86 519.28 86C512.858 86 506.551 87.7013 501 90.9308L422.2 136.351C417.083 139.345 412.764 143.53 409.61 148.551L453.37 174.721C455.268 171.597 457.919 168.997 461.08 167.161L508.47 139.921C511.776 138.001 515.532 136.99 519.355 136.99C523.178 136.99 526.934 138.001 530.24 139.921L577.63 167.251C580.936 169.169 583.691 171.907 585.63 175.201L585.87 175.621L629.71 149.771C626.512 144.218 621.889 139.62 616.32 136.451Z" fill="white"/>
<path d="M564.45 186.812L522.65 206.642L519.35 248.512L516.04 206.612L474.19 186.812L519.35 202.762L564.45 186.812Z" fill="#002866"/>
<path d="M522.65 206.641L519.35 248.511L516.04 206.611L519.35 202.761L522.65 206.641Z" fill="white"/>
<path d="M564.45 186.812L522.65 206.642L519.35 202.762L564.45 186.812Z" fill="white"/>
<path d="M519.35 202.762L516.04 206.612L474.19 186.812L519.35 202.762Z" fill="white"/>
</g>
<defs>
<linearGradient id="paint0_linear_1944_6952" x1="327.759" y1="1.33393e-05" x2="519.328" y2="426.81" gradientUnits="userSpaceOnUse">
<stop stop-color="white"/>
<stop offset="1" stop-color="white" stop-opacity="0"/>
</linearGradient>
<clipPath id="clip0_1944_6952">
<rect width="1039" height="666" fill="white"/>
</clipPath>
</defs>
</svg>
