<svg width="56" height="12" viewBox="0 0 56 12" fill="none" xmlns="http://www.w3.org/2000/svg">
<path d="M19.2264 2.36789H10.7861H6.53304C4.36265 2.36789 2.56498 3.99332 2.56498 5.99998C2.56498 6.40132 2.65267 6.7826 2.78421 7.16386C2.76228 7.12373 2.71844 7.0836 2.69652 7.06355C2.08267 6.32105 1.73191 5.39799 1.73191 4.41471C1.73191 1.96655 3.88035 0 6.53304 0H19.2264H21.3968H23.874V1.18395V2.36789H21.331H21.2871H19.2264ZM18.2618 9.6321H14.2499H11.7288H6.53304C5.76571 9.6321 5.04226 9.49163 4.38459 9.25081C2.3019 8.46822 0.833072 6.602 0.833072 4.41471C0.833072 3.73242 0.964606 3.0903 1.22768 2.48829C0.438459 3.47156 0 4.69565 0 5.99998C0 9.31103 2.91575 11.9799 6.53304 11.9799H18.2618H22.6902H23.874V10.816V9.6321H21.331H21.2871H18.2618ZM31 12H33.5651H39.8787H43.9785H45.1184H47.8368H51.5856C51.5856 12 51.5856 12 51.6077 12C51.8708 11.9799 52.1556 11.9598 52.3967 11.8997C53.2518 11.7391 53.9971 11.3177 54.5451 10.7358C55.1371 10.1137 55.5097 9.29094 55.5097 8.40801C55.5097 7.50502 55.1371 6.70234 54.5451 6.06019C54.6109 6.30101 54.6549 6.56187 54.6549 6.80265C54.6549 7.40468 54.4576 7.94649 54.1287 8.40801C53.9314 8.62874 53.734 8.84947 53.4929 9.03008C52.9667 9.39129 52.3092 9.6321 51.5856 9.6321H43.9785H43.4085H40.9749H33.5651V7.18394H39.8787H45.1184H47.8368H51.5856C51.5856 7.18394 51.5856 7.18394 51.6077 7.18394C51.8708 7.18394 52.1556 7.14381 52.3967 7.10368C53.2518 6.92308 53.9971 6.50166 54.5451 5.91972C55.1371 5.29764 55.5097 4.47492 55.5097 3.59198C55.5097 2.70903 55.1371 1.88629 54.5451 1.24414C54.6109 1.48495 54.6549 1.74582 54.6549 2.00669C54.6549 2.58863 54.4576 3.13043 54.1287 3.59198C53.9314 3.83276 53.734 4.03345 53.4929 4.21405C52.9667 4.59531 52.3092 4.81604 51.5856 4.81604H45.1184H43.4085H40.9749H33.5651V2.36789H39.8787H42.6632H45.1184H51.5856C52.3092 2.36789 52.9009 2.9097 52.9229 3.5719C53.1423 3.41138 53.3393 3.21069 53.4929 2.9699C53.6682 2.68896 53.7561 2.34782 53.7561 2.00669C53.7561 0.903008 52.7914 0.0200666 51.6077 0C51.5856 0 51.5856 0 51.5856 0H45.25H43.9785H43.4085H40.9749H33.5651H31V2.36789V9.6321V12Z" fill="white"/>
</svg>
