<svg width="56" height="14" viewBox="0 0 56 14" fill="none" xmlns="http://www.w3.org/2000/svg">
<path d="M30.8628 5.43696H51.5946C52.1143 5.43696 52.5607 5.27883 52.9331 4.96259C53.2984 4.64026 53.4811 4.2541 53.4811 3.80404C53.4811 3.36009 53.2984 2.97695 52.9331 2.65463C52.5607 2.33838 52.1143 2.18026 51.5946 2.18026H34.0968L30.8628 0V5.43696ZM33.3713 10.883H51.5946C52.1143 10.883 52.5607 10.7219 52.9331 10.3996C53.2984 10.0833 53.4811 9.70015 53.4811 9.25012C53.4811 8.80009 53.2984 8.41391 52.9331 8.09157C52.5607 7.77534 52.1143 7.61721 51.5946 7.61721H33.3713V10.883ZM30.8628 13.0542V0H51.5946C52.81 0 53.8466 0.374019 54.7037 1.12206C55.568 1.86401 56 2.75801 56 3.80404C56 4.87441 55.5573 5.78361 54.6721 6.53164C55.5573 7.27359 56 8.17975 56 9.25012C56 10.2962 55.568 11.1932 54.7037 11.9412C53.8466 12.6832 52.81 13.0542 51.5946 13.0542H30.8628Z" fill="white"/>
<path d="M25.1373 13.0542H7.5359C5.4631 13.0542 3.6889 12.4156 2.21335 11.1385C0.737782 9.86132 0 8.32573 0 6.53164C0 4.7315 0.737782 3.19284 2.21335 1.91571C3.6889 0.638569 5.4631 0 7.5359 0H25.1373L20.8102 2.18026H7.5359C6.15171 2.18026 4.96773 2.60292 3.98401 3.44827C3.00032 4.29971 2.50846 5.32748 2.50846 6.53164C2.50846 7.72973 3.00032 8.75448 3.98401 9.60589C4.96773 10.4573 6.15171 10.883 7.5359 10.883H20.8102L25.1373 13.0542Z" fill="white"/>
</svg>
