<svg width="571" height="36" viewBox="0 0 571 36" fill="none" xmlns="http://www.w3.org/2000/svg">
<path d="M54.8913 7.10367H30.7942H18.6518C12.4554 7.10367 7.32301 11.98 7.32301 17.9999C7.32301 19.2039 7.57337 20.3478 7.94891 21.4916C7.88632 21.3712 7.76114 21.2508 7.69855 21.1907C5.94603 18.9632 4.94459 16.194 4.94459 13.2441C4.94459 5.89966 11.0784 0 18.6518 0H54.8913H61.0878H68.1604V3.55183V7.10367H60.9H60.7748H54.8913ZM52.1374 28.8963H40.6834H33.4856H18.6518C16.4611 28.8963 14.3956 28.4749 12.518 27.7524C6.57193 25.4047 2.37842 19.806 2.37842 13.2441C2.37842 11.1973 2.75395 9.2709 3.50503 7.46488C1.2518 10.4147 0 14.087 0 17.9999C0 27.9331 8.32445 35.9398 18.6518 35.9398H52.1374H64.7805H68.1604V32.4481V28.8963H60.9H60.7748H52.1374ZM78.7875 2.34782V1.98662V0H86.1105V1.98662V5.35786V7.10367C86.1105 10.1739 87.0493 13.184 88.927 15.1103C83.1061 13.6053 78.7875 8.42808 78.7875 2.34782ZM141.377 1.98662V0H148.763V1.98662V2.34782C148.763 8.42808 144.444 13.6053 138.561 15.1103C140.438 13.184 141.377 10.1739 141.377 7.10367V5.35786V1.98662ZM117.468 25.1036H119.158H120.598H131.55C136.244 25.1036 140.564 23.2374 143.631 20.2876C146.071 17.9398 147.637 14.8093 148.325 11.3779C145.383 15.4114 140.501 17.9999 135.056 17.9999H131.55H123.852H120.598H119.971H119.158H116.717H111.147H110.771H108.329H107.516H106.89H103.698H95.9371H92.4946C86.9868 17.9999 82.1673 15.4114 79.2255 11.3779C79.9141 14.8093 81.4788 17.9398 83.8572 20.2876C86.9868 23.2374 91.2428 25.1036 95.9371 25.1036H106.89H108.329H110.083V35.9398H117.468V25.1036ZM159.408 36H166.732H184.757H196.462H199.717H207.478H218.18C218.18 36 218.18 36 218.243 36C218.995 35.9398 219.808 35.8795 220.496 35.699C222.937 35.2173 225.065 33.9531 226.63 32.2073C228.32 30.3411 229.384 27.8728 229.384 25.224C229.384 22.5151 228.32 20.107 226.63 18.1806C226.817 18.903 226.943 19.6856 226.943 20.408C226.943 22.214 226.38 23.8395 225.441 25.224C224.877 25.8862 224.314 26.5484 223.626 27.0902C222.123 28.1739 220.246 28.8963 218.18 28.8963H196.462H194.835H187.887H166.732V21.5518H184.757H199.717H207.478H218.18C218.18 21.5518 218.18 21.5518 218.243 21.5518C218.995 21.5518 219.808 21.4314 220.496 21.311C222.937 20.7692 225.065 19.505 226.63 17.7591C228.32 15.8929 229.384 13.4248 229.384 10.7759C229.384 8.12708 228.32 5.65886 226.63 3.73243C226.817 4.45484 226.943 5.23745 226.943 6.02006C226.943 7.76588 226.38 9.39129 225.441 10.7759C224.877 11.4983 224.314 12.1003 223.626 12.6422C222.123 13.7859 220.246 14.4481 218.18 14.4481H199.717H194.835H187.887H166.732V7.10367H184.757H192.707H199.717H218.18C220.246 7.10367 221.936 8.72909 221.998 10.7157C222.625 10.2341 223.187 9.63207 223.626 8.90969C224.126 8.06687 224.377 7.04347 224.377 6.02006C224.377 2.70902 221.623 0.0601998 218.243 0C218.18 0 218.18 0 218.18 0H200.092H196.462H194.835H187.887H166.732H159.408V7.10367V28.8963V36ZM295.109 7.10367H250.608H240.03V0H250.608H295.109C299.615 0 303.183 3.49163 303.183 7.76588C303.183 9.9331 302.244 11.9197 300.742 13.3645C300.742 13.0635 300.805 12.8227 300.805 12.5218C300.805 9.57193 298.238 7.10367 295.109 7.10367ZM292.292 25.1036L300.241 36H309.254L300.492 23.9599C304.998 21.9732 308.19 17.5786 308.19 12.5218C308.19 9.57193 307.063 6.86287 305.248 4.69564C305.562 5.65886 305.749 6.68226 305.749 7.76588C305.749 13.4248 300.992 17.9999 295.109 17.9999H250.608H240.03V36H247.353V25.1036H292.292ZM319.918 0V35.9398H327.24V0H319.918ZM351.155 7.10367H345.271H345.147H337.949V3.55183V0H344.959H351.155H387.395C394.968 0 401.101 5.89966 401.101 13.2441C401.101 16.194 400.1 18.9632 398.348 21.1907C398.285 21.2508 398.16 21.3712 398.098 21.4916C398.473 20.3478 398.723 19.2039 398.723 17.9999C398.723 11.98 393.591 7.10367 387.395 7.10367H375.252H351.155ZM353.909 28.8963H345.271H345.147H337.949V32.4481V35.9398H341.266H353.909H387.395C397.722 35.9398 406.109 27.9331 406.109 17.9999C406.109 14.087 404.795 10.4147 402.541 7.46488C403.292 9.2709 403.668 11.1973 403.668 13.2441C403.668 19.806 399.474 25.4047 393.528 27.7524C391.65 28.4749 389.585 28.8963 387.395 28.8963H372.561H365.363H353.909ZM460.736 21.5518V21.4916H479.2C481.266 21.4916 482.956 23.1773 483.018 25.1639C483.645 24.6822 484.208 24.02 484.584 23.3578C485.084 22.4548 485.397 21.4916 485.397 20.408C485.397 17.1572 482.643 14.4481 479.263 14.4481C479.2 14.4481 479.2 14.4481 479.2 14.4481H461.112H455.855H455.354H448.907H435.2C433.134 14.4481 431.507 16.0133 431.507 17.9999C431.507 19.9264 433.134 21.5518 435.2 21.5518H453.727H460.736ZM421.681 13.2441C421.681 16.194 422.682 18.9632 424.434 21.1907C424.497 21.2508 424.622 21.3712 424.685 21.4916C424.309 20.3478 424.059 19.2039 424.059 17.9999C424.059 11.98 429.191 7.10367 435.388 7.10367H447.53H460.736H462.552H483.018H488.527V3.55183V0H483.332H462.552H460.736H435.388C427.815 0 421.681 5.89966 421.681 13.2441ZM416.736 17.9999C416.736 14.087 417.988 10.4147 420.242 7.46488C419.49 9.2709 419.115 11.1973 419.115 13.2441C419.115 19.806 423.308 25.4047 429.254 27.7524C431.131 28.4749 433.197 28.8963 435.388 28.8963H448.907H449.345H450.159H455.354H455.855H479.2C481.203 28.8963 483.144 28.1739 484.584 27.0301C485.335 26.5484 485.897 25.8862 486.399 25.224C487.4 23.8395 487.963 22.214 487.963 20.408C487.963 19.6254 487.838 18.903 487.651 18.1806C489.341 20.0468 490.342 22.5151 490.342 25.224C490.342 27.8728 489.341 30.3411 487.651 32.2073C486.085 33.9531 483.957 35.2173 481.517 35.699C480.766 35.8795 480.014 35.9398 479.263 35.9398C479.2 35.9398 479.2 35.9398 479.2 35.9398H468.497H460.736H448.907H435.388C425.061 35.9398 416.736 27.9331 416.736 17.9999ZM531.819 7.10367H545.025H546.84H567.307H571V3.55183V0H567.621H546.84H545.025H519.676C512.103 0 505.97 5.89966 505.97 13.2441C505.97 16.194 506.97 18.9632 508.723 21.1907C508.786 21.2508 508.91 21.3712 508.973 21.4916C508.598 20.3478 508.348 19.2039 508.348 17.9999C508.348 11.98 513.48 7.10367 519.676 7.10367H531.819ZM545.025 28.8963H541.708H534.51H519.676C517.486 28.8963 515.421 28.4749 513.543 27.7524C507.597 25.4047 503.403 19.806 503.403 13.2441C503.403 11.1973 503.779 9.2709 504.53 7.46488C502.276 10.4147 501.025 14.087 501.025 17.9999C501.025 27.9331 509.349 35.9398 519.676 35.9398H545.025H546.84H552.786H567.621H571V32.4481V28.8963H567.307H552.849H546.84H545.025ZM519.489 21.5518C517.423 21.5518 515.795 19.9264 515.795 17.9999C515.795 16.0133 517.423 14.4481 519.489 14.4481H538.015H545.025H563.615H571V17.9999V21.5518H563.615H545.025H538.015H519.489Z" fill="white"/>
</svg>
