<svg width="300" height="21" viewBox="0 0 300 21" fill="none" xmlns="http://www.w3.org/2000/svg">
<path d="M34.8165 21H10.4377C7.56671 21 5.10934 19.9727 3.06561 17.9183C1.02187 15.8637 0 13.3934 0 10.5073C0 7.61145 1.02187 5.13627 3.06561 3.08176C5.10934 1.02725 7.56671 0 10.4377 0H34.8165V3.50734H10.4377C8.52044 3.50734 6.88059 4.18728 5.51811 5.54718C4.1556 6.91684 3.47435 8.57021 3.47435 10.5073C3.47435 12.4347 4.1556 14.0832 5.51811 15.4528C6.88059 16.8225 8.52044 17.5073 10.4377 17.5073H34.8165V21ZM72.3746 0L60.1852 9.18659L47.9957 0H42.2003L58.4479 12.2536V21H61.9225V12.2536L78.1701 0H72.3746ZM89.0137 8.7463H114.253C114.974 8.7463 115.592 8.49198 116.108 7.98321C116.614 7.46469 116.867 6.84348 116.867 6.11948C116.867 5.40529 116.614 4.78896 116.108 4.27044C115.592 3.7617 114.974 3.50734 114.253 3.50734H89.0137V8.7463ZM89.0137 17.5073H114.253C114.974 17.5073 115.592 17.2481 116.108 16.7296C116.614 16.2208 116.867 15.6045 116.867 14.8805C116.867 14.1565 116.614 13.5353 116.108 13.0167C115.592 12.508 114.974 12.2536 114.253 12.2536H89.0137V17.5073ZM85.5391 21V0H114.253C115.937 0 117.373 0.601676 118.56 1.80503C119.757 2.9986 120.356 4.43676 120.356 6.11948C120.356 7.84138 119.743 9.30397 118.516 10.5073C119.743 11.7009 120.356 13.1586 120.356 14.8805C120.356 16.5632 119.757 18.0063 118.56 19.2096C117.373 20.4032 115.937 21 114.253 21H85.5391ZM159.228 11.5786C160.23 11.0601 161.033 10.3214 161.636 9.36269C162.249 8.37454 162.556 7.29348 162.556 6.11948C162.556 4.43676 161.958 2.9986 160.76 1.80503C159.573 0.601676 158.137 0 156.454 0H127.74V3.50734H156.454C157.174 3.50734 157.792 3.7617 158.308 4.27044C158.814 4.78896 159.067 5.40529 159.067 6.11948C159.067 6.84348 158.814 7.46469 158.308 7.98321C157.792 8.49198 157.174 8.7463 156.454 8.7463H127.74V21H131.214V12.2536H152.103C154.031 12.2536 155.67 12.9385 157.023 14.3082C158.386 15.6778 159.067 17.3263 159.067 19.2536V21H162.556V19.2536C162.556 16.2208 161.447 13.6625 159.228 11.5786ZM169.939 21H173.414V0H169.939V21ZM180.783 0V3.50734H205.148C207.074 3.50734 208.714 4.18728 210.067 5.54718C211.429 6.91684 212.111 8.57021 212.111 10.5073C212.111 12.4347 211.429 14.0832 210.067 15.4528C208.714 16.8225 207.074 17.5073 205.148 17.5073H184.257V3.50734H180.783V21H205.148C208.028 21 210.49 19.9727 212.534 17.9183C214.578 15.8637 215.6 13.3934 215.6 10.5073C215.6 7.61145 214.578 5.13627 212.534 3.08176C210.49 1.02725 208.028 0 205.148 0H180.783ZM229.071 21C227.397 21 225.962 20.4032 224.764 19.2096C223.577 18.0063 222.984 16.5632 222.984 14.8805V6.11948C222.984 4.43676 223.577 2.9986 224.764 1.80503C225.962 0.601676 227.397 0 229.071 0H252.574C254.014 0 255.245 0.513624 256.267 1.54088C257.289 2.56813 257.8 3.80573 257.8 5.25365H254.311C254.311 4.77428 254.14 4.36338 253.8 4.02096C253.459 3.67855 253.051 3.50734 252.574 3.50734H229.071C228.351 3.50734 227.737 3.7617 227.232 4.27044C226.716 4.78896 226.458 5.40529 226.458 6.11948V14.8805C226.458 15.6045 226.716 16.2208 227.232 16.7296C227.737 17.2481 228.351 17.5073 229.071 17.5073H251.698C252.418 17.5073 253.036 17.2481 253.552 16.7296C254.058 16.2208 254.311 15.6045 254.311 14.8805V12.2536H243.873V8.7463H257.8V14.8805C257.8 16.5632 257.201 18.0063 256.004 19.2096C254.817 20.4032 253.381 21 251.698 21H229.071ZM265.183 8.7463V21H300V17.5073H268.658V12.2536H300V8.7463H265.183ZM265.183 0V3.50734H300V0H265.183Z" fill="white"/>
</svg>
