<svg width="571" height="39" viewBox="0 0 571 39" fill="none" xmlns="http://www.w3.org/2000/svg">
<path d="M66.2675 39H19.8664C14.402 39 9.72478 37.0922 5.83487 33.2768C1.94496 29.4612 0 24.8735 0 19.5136C0 14.1356 1.94496 9.5388 5.83487 5.72326C9.72478 1.90775 14.402 0 19.8664 0H66.2675V6.51363H19.8664C16.2172 6.51363 13.0961 7.77638 10.5028 10.3019C7.90948 12.8456 6.61285 15.9161 6.61285 19.5136C6.61285 23.093 7.90948 26.1545 10.5028 28.6981C13.0961 31.2418 16.2172 32.5136 19.8664 32.5136H66.2675V39ZM137.753 0L114.553 17.0608L91.3518 0H80.3212L111.246 22.7568V39H117.859V22.7568L148.784 0H137.753ZM169.423 16.2431H217.462C218.833 16.2431 220.01 15.7708 220.991 14.826C221.955 13.863 222.436 12.7093 222.436 11.3648C222.436 10.0384 221.955 8.89378 220.991 7.93082C220.01 6.98602 218.833 6.51363 217.462 6.51363H169.423V16.2431ZM169.423 32.5136H217.462C218.833 32.5136 220.01 32.0322 220.991 31.0692C221.955 30.1243 222.436 28.9797 222.436 27.6352C222.436 26.2907 221.955 25.1369 220.991 24.1739C220.01 23.2292 218.833 22.7568 217.462 22.7568H169.423V32.5136ZM162.809 39V0H217.462C220.668 0 223.4 1.1174 225.66 3.3522C227.938 5.56883 229.077 8.23969 229.077 11.3648C229.077 14.5626 227.91 17.2788 225.576 19.5136C227.91 21.7303 229.077 24.4374 229.077 27.6352C229.077 30.7603 227.938 33.4403 225.66 35.675C223.4 37.8916 220.668 39 217.462 39H162.809ZM303.063 21.5031C304.971 20.5402 306.499 19.1684 307.647 17.3878C308.815 15.5527 309.398 13.545 309.398 11.3648C309.398 8.23969 308.259 5.56883 305.98 3.3522C303.72 1.1174 300.988 0 297.784 0H243.131V6.51363H297.784C299.154 6.51363 300.331 6.98602 301.313 7.93082C302.275 8.89378 302.758 10.0384 302.758 11.3648C302.758 12.7093 302.275 13.863 301.313 14.826C300.331 15.7708 299.154 16.2431 297.784 16.2431H243.131V39H249.743V22.7568H289.504C293.172 22.7568 296.293 24.0287 298.867 26.5723C301.461 29.116 302.758 32.1775 302.758 35.7568V39H309.398V35.7568C309.398 30.1243 307.287 25.3731 303.063 21.5031ZM323.451 39H330.065V0H323.451V39ZM344.091 0V6.51363H390.464C394.131 6.51363 397.253 7.77638 399.828 10.3019C402.421 12.8456 403.717 15.9161 403.717 19.5136C403.717 23.093 402.421 26.1545 399.828 28.6981C397.253 31.2418 394.131 32.5136 390.464 32.5136H350.703V6.51363H344.091V39H390.464C395.946 39 400.633 37.0922 404.523 33.2768C408.413 29.4612 410.358 24.8735 410.358 19.5136C410.358 14.1356 408.413 9.5388 404.523 5.72326C400.633 1.90775 395.946 0 390.464 0H344.091ZM435.998 39C432.812 39 430.08 37.8916 427.801 35.675C425.541 33.4403 424.412 30.7603 424.412 27.6352V11.3648C424.412 8.23969 425.541 5.56883 427.801 3.3522C430.08 1.1174 432.812 0 435.998 0H480.732C483.473 0 485.816 0.953873 487.762 2.86163C489.707 4.76939 490.679 7.06779 490.679 9.75678H484.039C484.039 8.86652 483.714 8.10342 483.066 7.4675C482.417 6.83159 481.64 6.51363 480.732 6.51363H435.998C434.627 6.51363 433.46 6.98602 432.497 7.93082C431.516 8.89378 431.024 10.0384 431.024 11.3648V27.6352C431.024 28.9797 431.516 30.1243 432.497 31.0692C433.46 32.0322 434.627 32.5136 435.998 32.5136H479.065C480.436 32.5136 481.612 32.0322 482.594 31.0692C483.556 30.1243 484.039 28.9797 484.039 27.6352V22.7568H464.172V16.2431H490.679V27.6352C490.679 30.7603 489.539 33.4403 487.261 35.675C485.001 37.8916 482.269 39 479.065 39H435.998ZM504.733 16.2431V39H571V32.5136H511.346V22.7568H571V16.2431H504.733ZM504.733 0V6.51363H571V0H504.733Z" fill="white"/>
</svg>
