<svg width="300" height="19" viewBox="0 0 300 19" fill="none" xmlns="http://www.w3.org/2000/svg">
<path d="M35.8374 19H10.7437C7.78855 19 5.25913 18.0896 3.15549 16.2689C1.05183 14.4481 0 12.2588 0 9.70107C0 7.13467 1.05183 4.94106 3.15549 3.12029C5.25913 1.29952 7.78855 0.389136 10.7437 0.389136H35.8374L29.6684 3.49745H10.7437C8.77027 3.49745 7.08232 4.10003 5.67987 5.30522C4.27745 6.51908 3.57622 7.98433 3.57622 9.70107C3.57622 11.4091 4.27745 12.8701 5.67987 14.0839C7.08232 15.2978 8.77027 15.9047 10.7437 15.9047H29.6684L35.8374 19ZM73.557 0.389136L61.0104 8.53057L48.4635 0.389136H42.4979L59.2223 11.2487V19H62.7986V11.2487L79.5225 0.389136H73.557ZM85.5973 8.14041H115.154C115.895 8.14041 116.531 7.91496 117.062 7.46412C117.583 7.00457 117.843 6.45404 117.843 5.81241C117.843 5.17949 117.583 4.63325 117.062 4.17374C116.531 3.72287 115.895 3.49744 115.154 3.49744H90.2079L85.5973 0.389124V8.14041ZM89.1736 15.9047H115.154C115.895 15.9047 116.531 15.6749 117.062 15.2154C117.583 14.7645 117.843 14.2183 117.843 13.5767C117.843 12.9351 117.583 12.3845 117.062 11.925C116.531 11.4741 115.895 11.2487 115.154 11.2487H89.1736V15.9047ZM85.5973 19V0.389124H115.154C116.887 0.389124 118.365 0.92235 119.586 1.9888C120.819 3.04658 121.434 4.32112 121.434 5.81241C121.434 7.3384 120.803 8.63461 119.541 9.70105C120.803 10.7588 121.434 12.0507 121.434 13.5767C121.434 15.068 120.819 16.3469 119.586 17.4133C118.365 18.4711 116.887 19 115.154 19H85.5973ZM160.415 10.6505C161.447 10.1909 162.273 9.53634 162.895 8.68664C163.526 7.81094 163.841 6.85286 163.841 5.81241C163.841 4.32112 163.225 3.04658 161.993 1.9888C160.771 0.92235 159.293 0.389124 157.56 0.389124H128.004L132.706 3.49744H157.56C158.302 3.49744 158.938 3.72287 159.469 4.17374C159.989 4.63325 160.25 5.17949 160.25 5.81241C160.25 6.45404 159.989 7.00457 159.469 7.46412C158.938 7.91496 158.302 8.14041 157.56 8.14041H131.58H128.004V19H131.58V11.2487H153.082C155.066 11.2487 156.754 11.8556 158.146 13.0695C159.549 14.2833 160.25 15.7443 160.25 17.4523V19H163.841V17.4523C163.841 14.7645 162.699 12.4973 160.415 10.6505ZM170.168 19H173.744V3.49744V0H170.168V19ZM180.053 0.199297L184.425 3.49744H205.131C207.115 3.49744 208.803 4.10001 210.195 5.30521C211.598 6.51906 212.299 7.98432 212.299 9.70105C212.299 11.4091 211.598 12.8701 210.195 14.0839C208.803 15.2978 207.115 15.9047 205.131 15.9047H183.629V8.16256H180.053V19H205.131C208.096 19 210.631 18.0896 212.735 16.2688C214.838 14.4481 215.89 12.2588 215.89 9.70105C215.89 7.13466 214.838 4.94105 212.735 3.12028C210.631 1.29951 208.096 0.389124 205.131 0.389124L180.053 0.199297ZM228.342 19C226.619 19 225.142 18.4711 223.909 17.4133C222.687 16.3469 222.076 15.068 222.076 13.5767V5.81241C222.076 4.32112 222.687 3.04658 223.909 1.9888C225.142 0.92235 226.619 0.389124 228.342 0.389124H252.534L254.772 0.389224C256.489 0.3893 257.88 1.78087 257.88 3.49744V3.49744H253.819C253.819 3.49744 253.025 3.49744 252.534 3.49744H228.342C227.601 3.49744 226.969 3.72287 226.449 4.17374C225.918 4.63325 225.652 5.17949 225.652 5.81241V13.5767C225.652 14.2183 225.918 14.7645 226.449 15.2154C226.969 15.6749 227.601 15.9047 228.342 15.9047H251.633C252.374 15.9047 253.01 15.6749 253.541 15.2154C254.062 14.7645 254.322 14.2183 254.322 13.5767V11.2487H247.17L251.594 8.14041H257.913V13.5767C257.913 15.068 257.297 16.3469 256.065 17.4133C254.843 18.4711 253.365 19 251.633 19H228.342ZM264.162 8.14041V19H300V15.9047H267.739V11.2487H300V8.14041H264.162ZM264.162 0.389124L268.619 3.49744H295.481L300 0.389124H264.162Z" fill="white"/>
</svg>
