<svg width="24" height="25" viewBox="0 0 24 25" fill="none" xmlns="http://www.w3.org/2000/svg">
<path d="M23 16.8507L23.9249 17.2311C24.0835 16.8454 23.9861 16.4018 23.6805 16.118C23.3749 15.8342 22.9253 15.7698 22.5524 15.9565L23 16.8507ZM10.0156 1.00002L10.8226 1.59059C11.0682 1.25502 11.0804 0.80249 10.8534 0.454089C10.6264 0.105688 10.2075 -0.0658642 9.80131 0.0232456L10.0156 1.00002ZM18.3951 16.9366C13.1984 16.9366 8.95783 12.6496 8.95783 7.32666L6.95783 7.32666C6.95783 13.7231 12.063 18.9366 18.3951 18.9366L18.3951 16.9366ZM22.5524 15.9565C21.2988 16.584 19.8886 16.9366 18.3951 16.9366L18.3951 18.9366C20.2073 18.9366 21.9233 18.508 23.4477 17.7449L22.5524 15.9565ZM22.0752 16.4703C20.4946 20.3132 16.769 22.9976 12.4405 22.9976L12.4405 24.9976C17.6227 24.9976 22.0526 21.7832 23.9249 17.2311L22.0752 16.4703ZM12.4405 22.9976C6.68985 22.9976 2.00013 18.2541 2.00013 12.3679L0.000125388 12.3679C0.000125084 19.3276 5.55446 24.9976 12.4405 24.9976L12.4405 22.9976ZM2.00013 12.3679C2.00013 7.25953 5.53606 3.00655 10.2299 1.97679L9.80131 0.0232456C4.1879 1.25476 0.000125652 6.32213 0.000125388 12.3679L2.00013 12.3679ZM8.95783 7.32666C8.95783 5.17395 9.65174 3.19047 10.8226 1.59059L9.20862 0.409439C7.79393 2.34252 6.95783 4.73757 6.95783 7.32666L8.95783 7.32666Z" fill="white"/>
</svg>
