<svg width="21" height="22" viewBox="0 0 21 22" fill="none" xmlns="http://www.w3.org/2000/svg">
<path fill-rule="evenodd" clip-rule="evenodd" d="M8.26756 12.5922L5.20963 18.1932L4.56052 12.5339C4.41616 11.2753 4.92466 10.0219 5.90752 9.2165L9.33463 6.53078L11.8054 7.95895L14.551 9.57766L13.9458 13.8644C13.7406 15.12 12.9106 16.1872 11.7507 16.6911L6.49118 18.9757L9.58394 13.3109C9.78246 12.9473 9.64871 12.4916 9.2852 12.2932C8.92169 12.0947 8.46608 12.2286 8.26756 12.5922ZM16.0626 9.59951L15.4298 14.0815L15.4276 14.0962C15.1432 15.8574 13.981 17.3576 12.3479 18.067L6.8292 20.4642C6.15826 20.7556 5.43937 20.6879 4.86694 20.3659C4.27981 20.0355 3.8423 19.4351 3.75675 18.6892L3.0704 12.7053C2.8674 10.9354 3.58335 9.17755 4.96485 8.0499L4.97648 8.04059L8.80877 5.03736C8.8269 5.02315 8.84555 5.00987 8.86464 4.99754L9.12084 4.54429L9.14498 4.50159L9.14499 4.50158C9.45335 3.95598 9.72115 3.48216 9.9867 3.13169C10.2719 2.75522 10.6219 2.42761 11.1292 2.2916C11.6365 2.15558 12.1032 2.26424 12.5384 2.44756C12.9435 2.61823 13.4121 2.89458 13.9518 3.21281L13.9518 3.21281L13.9941 3.23772L15.1652 3.92815L15.207 3.95281C15.7471 4.27119 16.2157 4.5474 16.5626 4.82002C16.9359 5.11342 17.2546 5.46695 17.3897 5.97134C17.5247 6.47574 17.4254 6.94132 17.2487 7.38221C17.0845 7.79187 16.8167 8.2655 16.5081 8.81146L16.4842 8.85372L16.0699 9.58654L16.0626 9.59951ZM15.1529 8.1611L15.1785 8.1157C15.518 7.5152 15.7342 7.12946 15.8565 6.82432C15.9705 6.53989 15.9591 6.42806 15.9408 6.35979C15.9225 6.29153 15.8766 6.18895 15.6357 5.99967C15.3773 5.79661 14.9973 5.57072 14.4032 5.2205L13.2322 4.53007C12.6379 4.17971 12.2566 3.95679 11.9558 3.83005C11.6745 3.71154 11.5721 3.72581 11.5172 3.74054C11.4622 3.75528 11.3664 3.79414 11.182 4.03751C10.9848 4.29777 10.766 4.68158 10.4265 5.28231L10.3747 5.37392L12.5617 6.66334L15.1529 8.1611Z" fill="white"/>
<ellipse rx="1.44308" ry="1.44078" transform="matrix(-0.258722 -0.965952 0.961665 -0.274226 8.95946 12.8832)" fill="white"/>
</svg>
