<svg width="41" height="41" viewBox="0 0 41 41" fill="none" xmlns="http://www.w3.org/2000/svg">
<path d="M26 16L17.4286 25L14 21.4" stroke="white" stroke-width="2" stroke-linecap="round" stroke-linejoin="round"/>
<path d="M17.2929 2.59303C18.9034 0.46899 22.0966 0.46899 23.7071 2.59303L25.7186 5.24579C26.158 5.82527 26.8758 6.12261 27.5963 6.02355L30.8944 5.57008C33.5351 5.207 35.793 7.46488 35.4299 10.1056L34.9765 13.4037C34.8774 14.1242 35.1747 14.842 35.7542 15.2814L38.407 17.2929C40.531 18.9034 40.531 22.0966 38.407 23.7071L35.7542 25.7186C35.1747 26.158 34.8774 26.8758 34.9765 27.5963L35.4299 30.8944C35.793 33.5351 33.5351 35.793 30.8944 35.4299L27.5963 34.9765C26.8758 34.8774 26.158 35.1747 25.7186 35.7542L23.7071 38.407C22.0966 40.531 18.9034 40.531 17.2929 38.407L15.2814 35.7542C14.842 35.1747 14.1242 34.8774 13.4037 34.9765L10.1056 35.4299C7.46487 35.793 5.207 33.5351 5.57008 30.8944L6.02355 27.5963C6.12261 26.8758 5.82527 26.158 5.24579 25.7186L2.59303 23.7071C0.46899 22.0966 0.46899 18.9034 2.59303 17.2929L5.24579 15.2814C5.82527 14.842 6.12261 14.1242 6.02355 13.4037L5.57008 10.1056C5.207 7.46488 7.46488 5.207 10.1056 5.57008L13.4037 6.02355C14.1242 6.12261 14.842 5.82527 15.2814 5.24579L17.2929 2.59303Z" stroke="white" stroke-width="2"/>
</svg>
