<svg width="50" height="55" viewBox="0 0 50 55" fill="none" xmlns="http://www.w3.org/2000/svg">
<path d="M32.6529 5.55664L26.5304 21.8832M26.5304 21.8832L44.8978 24.4342M26.5304 21.8832L36.7345 43.3117M26.5304 21.8832L7.65288 13.7199M26.5304 21.8832L22.959 23.924M5.61206 32.5975L10.2039 30.5566" stroke="white" stroke-width="2" stroke-linejoin="round"/>
<circle cx="6.12226" cy="12.6999" r="2.06122" fill="white" stroke="white" stroke-width="2"/>
<circle cx="33.6733" cy="3.5163" r="2.06122" stroke="white" stroke-width="2"/>
<circle cx="46.9387" cy="24.944" r="2.06122" fill="white" stroke="white" stroke-width="2"/>
<circle cx="37.7551" cy="44.3308" r="2.06122" fill="white" stroke="white" stroke-width="2"/>
<circle cx="3.06122" cy="33.1081" r="2.06122" fill="white" stroke="white" stroke-width="2"/>
<path d="M3.57129 33.1094L6.12231 13.2115L33.6733 3.51758L46.9386 25.4564L37.755 44.8441" stroke="white" stroke-width="2" stroke-linejoin="round" stroke-dasharray="4 4"/>
<path d="M4.06104 47.6003C4.06104 49.062 4.21663 50.1169 4.55678 50.904C4.8794 51.6506 5.39194 52.2122 6.24963 52.6533C7.14329 53.1129 8.42274 53.446 10.2651 53.6566C12.0986 53.8661 14.4169 53.9473 17.3468 53.9473C20.2766 53.9473 22.5949 53.8661 24.4284 53.6566C26.2708 53.446 27.5502 53.1129 28.4439 52.6533C29.3016 52.2122 29.8141 51.6506 30.1367 50.904C30.4769 50.1169 30.6325 49.062 30.6325 47.6003C30.6325 46.1386 30.4769 45.0838 30.1367 44.2966C29.8141 43.5501 29.3016 42.9884 28.4439 42.5473C27.5502 42.0877 26.2708 41.7546 24.4284 41.5441C22.5949 41.3345 20.2766 41.2534 17.3468 41.2534C14.4169 41.2534 12.0986 41.3345 10.2651 41.5441C8.42274 41.7546 7.14329 42.0877 6.24963 42.5473C5.39194 42.9884 4.8794 43.5501 4.55678 44.2966C4.21663 45.0838 4.06104 46.1386 4.06104 47.6003Z" stroke="white" stroke-width="2" stroke-linecap="round" stroke-linejoin="round"/>
<path d="M9.77536 28.8233C9.77536 33.2747 13.2085 36.8029 17.3468 36.8029C21.485 36.8029 24.9182 33.2747 24.9182 28.8233C24.9182 24.372 21.485 20.8438 17.3468 20.8438C13.2085 20.8438 9.77536 24.372 9.77536 28.8233Z" stroke="white" stroke-width="2"/>
</svg>
