<svg width="16" height="19" viewBox="0 0 16 19" fill="none" xmlns="http://www.w3.org/2000/svg">
<path d="M0.761353 8.22388L0.760395 8.22309C0.759766 8.2225 0.758731 8.22139 0.757487 8.21962C0.754757 8.21574 0.752251 8.21039 0.75091 8.20469C0.750411 8.20256 0.750179 8.20086 0.750076 8.19959C1.14756 7.60574 1.62393 7.07852 2.16367 6.63484C2.88366 6.04298 3.70248 5.61118 4.57261 5.36141C5.4426 5.11168 6.34897 5.04816 7.24077 5.17394C8.13265 5.29973 8.99509 5.61277 9.77875 6.09747C10.5626 6.58227 11.253 7.22987 11.8087 8.00568C12.3645 8.78158 12.7739 9.66979 13.0116 10.6201C13.2493 11.5705 13.3101 12.5626 13.1901 13.539C13.1033 14.2457 12.9231 14.9332 12.6565 15.5812L0.761353 8.22388Z" stroke="white" stroke-width="1.5"/>
<path d="M15.2663 5.22259C15.2663 5.2226 15.2661 5.22251 15.2659 5.22231L15.2663 5.22259ZM7.99644 1.13377L15.19 5.17946C15.0017 5.39254 14.7908 5.58705 14.5601 5.7595C14.1197 6.08869 13.616 6.3309 13.0775 6.47145C12.5391 6.612 11.9771 6.64791 11.424 6.57698C10.871 6.50606 10.3384 6.32979 9.85687 6.05895C9.37534 5.78813 8.9546 5.42832 8.61794 5.00094C8.28133 4.57361 8.03524 4.08696 7.89278 3.56905C7.75033 3.05117 7.71405 2.51139 7.78583 1.98025C7.82491 1.6911 7.89563 1.40738 7.99644 1.13377Z" stroke="white" stroke-width="1.5"/>
<path d="M3 17.3664L6.5 11.8642" stroke="white" stroke-width="1.5" stroke-linecap="round" stroke-linejoin="round"/>
</svg>
