<svg width="52" height="39" viewBox="0 0 52 39" fill="none" xmlns="http://www.w3.org/2000/svg">
<path d="M10.2593 21.6887L8.40741 23.5406L1 16.1332L15.0741 2.0591L22.4815 9.46651L19.1481 12.7998M10.2593 21.6887C12.2346 25.5159 17.6667 33.985 23.5926 37.2443C24.5802 37.8616 26.9259 36.8739 26.5556 34.6517C27.7901 35.1455 30.2593 35.0961 30.2593 32.4295C31.4938 32.7998 33.8889 33.1702 33.5926 30.2072C34.9506 30.4542 37.4444 30.4295 36.5556 28.3554L35.4444 27.2443M10.2593 21.6887L19.1481 12.7998M31.3704 13.1702L41.3704 23.1702M31.3704 13.1702L27.6667 9.46651L35.8148 1.31836L51 16.5035L42.8519 24.6517L41.3704 23.1702M31.3704 13.1702C28.8394 13.1702 26.5787 13.9359 24.7037 14.9478M41.3704 23.1702L35.4444 27.2443M35.4444 27.2443L27.6667 19.4665C25.1975 21.4418 20.6296 24.2813 19.1481 22.4295C18.037 20.948 19.0844 19.6026 19.5185 19.0961C20.3673 18.1059 22.1885 16.3053 24.7037 14.9478M19.1481 12.7998L24.7037 14.9478" stroke="white" stroke-width="2" stroke-linejoin="round"/>
</svg>
