<svg width="56" height="35" viewBox="0 0 56 35" fill="none" xmlns="http://www.w3.org/2000/svg">
<path d="M15.5 27.2C15.5 28.6061 15.6514 29.5563 15.9432 30.2314C16.2086 30.8456 16.6223 31.3088 17.3626 31.6895C18.1569 32.098 19.3387 32.415 21.119 32.6185C22.8861 32.8205 25.1346 32.9 28 32.9C30.8654 32.9 33.1139 32.8205 34.881 32.6185C36.6613 32.415 37.8431 32.098 38.6374 31.6895C39.3777 31.3088 39.7914 30.8456 40.0568 30.2314C40.3486 29.5563 40.5 28.6061 40.5 27.2C40.5 25.794 40.3486 24.8437 40.0568 24.1687C39.7914 23.5545 39.3777 23.0912 38.6374 22.7105C37.8431 22.302 36.6613 21.985 34.881 21.7815C33.1139 21.5796 30.8654 21.5 28 21.5C25.1346 21.5 22.8861 21.5796 21.119 21.7815C19.3387 21.985 18.1569 22.302 17.3626 22.7105C16.6223 23.0912 16.2086 23.5545 15.9432 24.1687C15.6514 24.8437 15.5 25.794 15.5 27.2Z" stroke="white" stroke-width="3" stroke-linecap="round" stroke-linejoin="round"/>
<path d="M21.0999 8.8C21.0999 12.8982 24.2541 16.1 27.9999 16.1C31.7457 16.1 34.8999 12.8982 34.8999 8.8C34.8999 4.7018 31.7457 1.5 27.9999 1.5C24.2541 1.5 21.0999 4.7018 21.0999 8.8Z" stroke="white" stroke-width="3"/>
<path d="M39.6002 4.80005C42.9602 4.80005 45.2002 7.40005 45.2002 10C45.2002 12.6 42.9602 15.2 39.6002 15.2" stroke="white" stroke-width="3" stroke-linecap="round" stroke-linejoin="round"/>
<path d="M16.3998 4.80005C13.0398 4.80005 10.7998 7.40005 10.7998 10C10.7998 12.6 13.0398 15.2 16.3998 15.2" stroke="white" stroke-width="3" stroke-linecap="round" stroke-linejoin="round"/>
<path d="M46.3734 31.2C51.2268 31.2 54.0001 30.4 54.0001 25.6C54.0001 20.8 51.2268 20 43.6001 20" stroke="white" stroke-width="3" stroke-linecap="round" stroke-linejoin="round"/>
<path d="M9.62657 31.2C4.77324 31.2 1.9999 30.4 1.9999 25.6C1.9999 20.8 4.77324 20 12.3999 20" stroke="white" stroke-width="3" stroke-linecap="round" stroke-linejoin="round"/>
</svg>
